<svg width="98" height="96" viewBox="0 0 98 96" fill="none" xmlns="http://www.w3.org/2000/svg">
<path d="M37.975 51.6771C37.975 43.7036 38.0339 35.7449 37.9456 27.7715C37.9162 24.9764 40.2552 22.3725 42.5207 21.6369C43.3299 21.3721 44.1831 21.2397 45.0511 21.2397C50.759 21.2545 56.4816 21.2545 62.1895 21.2545C63.2634 21.2545 63.2782 21.2545 63.2634 22.2989C63.2487 23.0786 63.3223 23.8583 63.1899 24.6527C62.6309 28.1393 59.262 30.699 55.7755 30.6549C52.642 30.6107 49.4938 30.6402 46.3604 30.6549C43.9183 30.6696 41.7852 31.5081 40.1228 33.3176C39.0048 34.5386 38.5782 36.0686 38.5635 37.7162C38.5635 37.9663 38.5929 38.2458 38.8724 38.3341C39.1666 38.4223 39.2843 38.1281 39.4314 37.9516C40.2847 36.9071 41.182 35.9215 42.3442 35.1859C43.5652 34.4209 44.904 34.0237 46.3015 33.9502C48.9201 33.8031 51.5387 33.8619 54.0543 34.8328C56.2021 35.6567 57.9969 36.9365 59.5709 38.6136C61.5864 40.7467 62.7044 43.277 63.1752 46.1163C63.337 47.0725 63.3958 48.0581 63.3958 49.0438C63.4253 53.4277 63.4253 57.8263 63.3958 62.2103C63.3664 66.7266 61.8218 70.6103 58.3499 73.5967C55.8343 75.7592 52.9362 76.9949 49.5674 77.0096C47.1106 77.0096 44.6686 76.9949 42.2118 77.0244C41.1085 77.0391 40.0199 77.2156 38.9165 77.1715C37.9897 77.1421 37.975 77.142 37.975 76.2005C37.975 68.0064 37.975 59.8418 37.975 51.6771Z" fill="#F8F4ED"/>
<path d="M12.733 30.404C12.733 27.4177 12.733 24.4166 12.733 21.4302C12.7477 15.6193 17.5435 11.0735 23.3545 11.3531C28.1797 11.5737 32.2988 15.3545 32.8431 20.1356C33.1668 22.916 32.902 25.7112 32.9755 28.5063C32.9903 29.4184 32.8579 30.3158 32.6519 31.1984C31.6221 35.6853 27.4294 39.3043 22.8984 39.4073C22.5159 39.422 21.7068 40.3929 21.7215 40.8048C21.7215 40.9814 21.8539 41.0108 21.9569 41.0255C22.1776 41.0549 22.3982 41.0549 22.6189 41.0549C26.2967 41.0549 29.9745 41.0549 33.6523 41.0549C34.4172 41.0549 34.7703 41.305 34.8586 41.9376C34.9615 42.5849 34.6085 43.1145 33.9465 43.188C30.4011 43.6294 26.8557 44.056 23.3103 44.512C20.4269 44.8798 17.5288 45.2182 14.6455 45.6154C12.6153 45.8949 10.5557 46.0567 8.5109 46.2774C6.02472 46.5422 3.53853 46.8217 1.06706 47.0865C0.875813 47.1012 0.669857 47.1453 0.478612 47.1306C0.243234 47.1159 0.0519886 46.9982 0.00785514 46.7481C-0.0362783 46.4981 0.110833 46.3215 0.316789 46.2185C0.449189 46.1597 0.596301 46.1156 0.728702 46.1009C4.00929 45.7478 7.30459 45.3947 10.5852 45.0416C11.1001 44.9828 11.6002 44.924 12.1151 44.8798C12.5712 44.8504 12.7771 44.6297 12.7477 44.1737C12.733 43.7765 12.7477 43.394 12.7477 42.9968C12.7477 42.0553 12.7477 42.0406 11.8209 42.0406C8.43735 42.0406 5.05378 42.0406 1.67022 42.0406C1.44955 42.0406 1.22888 42.0406 1.00821 42.0259C0.728701 41.9964 0.552168 41.8199 0.566879 41.5257C0.58159 41.2756 0.743412 41.1138 0.978791 41.0843C1.19946 41.0549 1.42013 41.0549 1.64079 41.0549C5.05378 41.0549 8.45206 41.0549 11.865 41.0549C12.7183 41.0549 12.733 41.0402 12.733 40.2017C12.733 36.9358 12.733 33.6846 12.733 30.4187C12.7477 30.404 12.7477 30.404 12.733 30.404Z" fill="#F8F4ED"/>
<path d="M25.8408 81.5848C23.237 81.5848 20.6478 81.5407 18.0439 81.5995C12.1448 81.7319 7.08414 77.2744 5.92196 71.7724C4.71564 66.0792 7.76085 60.7391 13.3511 58.7089C14.5868 58.2676 15.8373 57.9587 17.1465 57.9734C17.6467 57.9734 17.8527 57.8116 17.7791 57.282C17.632 56.1198 17.529 54.9429 17.4113 53.7807C17.3966 53.663 17.3525 53.5453 17.3525 53.4129C17.3378 52.9863 17.176 52.4861 17.6467 52.2066C18.1469 51.9124 18.5588 52.1772 18.9854 52.4861C20.0299 53.2511 21.1185 53.972 22.163 54.7222C22.4426 54.9282 22.7221 54.987 23.0604 54.8988C24.6934 54.4868 26.3116 54.5457 27.9298 55.0017C28.2534 55.09 28.4741 55.0459 28.7389 54.8399C29.754 54.0308 30.7985 53.2658 31.8135 52.4567C32.1813 52.1625 32.5785 51.9418 33.0198 52.1772C33.4906 52.4273 33.4023 52.898 33.3582 53.3541C33.1817 54.8399 33.0493 56.3257 32.8727 57.8116C32.8286 58.1941 33.0346 58.4589 33.2258 58.7384C34.1085 59.9741 34.6969 61.3275 34.9911 62.8134C35.2265 64.0491 35.1383 64.2109 33.8731 64.3286C32.2696 64.4757 30.7396 64.8141 29.3126 65.6085C27.871 66.4176 26.9589 67.6239 26.4146 69.1686C26.2674 69.5805 26.4293 69.757 26.7823 69.8894C29.2979 70.8456 31.1957 72.5963 32.7109 74.7588C33.9761 76.5536 34.8587 78.5396 35.3736 80.6874C35.5502 81.423 35.4178 81.5848 34.6822 81.5848C31.7253 81.5848 28.783 81.5848 25.8408 81.5848Z" fill="#F8F4ED"/>
<path d="M76.5059 20.7248C78.0947 20.7248 79.6982 20.7101 81.287 20.7248C89.1428 20.7984 95.8364 26.5798 96.9838 34.3473C97.3516 36.8335 97.1015 39.3344 97.1604 41.8353C97.1751 42.3796 96.7779 42.3061 96.4395 42.3061C93.7474 42.3208 91.0552 42.3208 88.3484 42.3208C87.9071 42.3208 87.4657 42.3502 87.0244 42.3208C86.4359 42.2619 86.2594 42.5267 86.2594 43.0858C86.2741 44.8952 86.2594 46.7194 86.2594 48.5289C86.2594 49.5292 86.2594 50.5443 86.2594 51.5447C86.2594 52.3391 86.2888 52.3538 87.0979 52.3538C88.3778 52.3538 89.643 52.3538 90.9228 52.3538C91.2612 52.3538 91.6731 52.2949 91.6584 52.8245C91.6437 53.2953 91.2906 53.3394 90.9228 53.3394C89.6724 53.3394 88.4219 53.3394 87.1715 53.3394C86.2594 53.3394 86.2594 53.3394 86.2447 54.2957C86.2447 55.9433 86.2447 57.5762 86.2447 59.2239C86.2447 59.4887 86.3035 59.7829 85.9946 59.93C85.6268 60.1066 85.2738 59.827 85.2738 59.2974C85.259 58.047 85.2738 56.7965 85.2738 55.5461C85.2738 55.0606 85.2443 54.5605 85.2885 54.075C85.3326 53.4865 85.0825 53.31 84.5235 53.3247C82.1697 53.3541 79.8159 53.3247 77.4621 53.3394C76.7413 53.3394 76.1234 53.1923 75.8292 52.4862C75.5056 51.7506 75.7704 51.1622 76.3147 50.5737C78.6537 48.0434 80.9634 45.469 83.273 42.9092C83.4054 42.7621 83.6114 42.6297 83.5673 42.4237C83.4937 42.1737 83.1995 42.2178 83.0082 42.1884C80.2278 41.7617 77.8593 40.5113 75.9028 38.4959C73.6078 36.1127 72.4604 33.244 72.3721 29.9487C72.3721 29.7574 72.3574 29.5515 72.3721 29.3602C72.4309 28.8748 72.2103 28.713 71.7395 28.7424C71.254 28.7718 70.7539 28.7865 70.2684 28.6688C69.9595 28.5953 69.7535 28.7571 69.5623 28.963C68.047 30.596 66.5318 32.2289 65.0312 33.8766C64.4134 34.5386 63.8249 35.23 63.2217 35.9067C63.0305 36.1127 62.8245 36.2745 62.5303 36.2598C62.1037 36.2304 61.9713 35.8626 62.2655 35.3771C63.5013 33.2587 64.7517 31.155 65.9874 29.0513C66.1787 28.7277 66.3258 28.3893 66.5465 28.0951C67.0908 27.3448 67.2379 26.6828 66.9142 25.6972C66.1051 23.2845 68.1059 20.7395 70.6509 20.7248C72.5928 20.7248 74.5493 20.7248 76.5059 20.7248Z" fill="#F8F4ED"/>
<path d="M70.961 87.483C68.872 87.483 66.7978 87.483 64.7088 87.483C61.59 87.483 58.7066 86.6445 56.1616 84.8204C55.6614 84.4673 55.3231 84.4084 54.8376 84.8351C53.5577 85.9678 52.0719 86.6739 50.336 86.7475C49.7917 86.7769 49.5416 86.6739 49.5563 86.0414C49.6004 84.4673 49.6004 82.9079 49.5563 81.3338C49.5416 80.7013 49.7917 80.5983 50.336 80.6424C51.9248 80.7601 53.3223 81.3191 54.5581 82.3195C55.6614 83.2169 55.3819 83.0697 56.397 82.393C58.8832 80.716 61.6489 79.8922 64.6352 79.8922C71.2994 79.8774 77.9636 79.8922 84.6277 79.8774C85.2603 79.8774 85.4368 80.0834 85.3927 80.6865C85.2309 83.261 83.9216 85.0999 81.7737 86.3797C80.4203 87.1888 78.9492 87.5419 77.3457 87.5125C75.2126 87.4683 73.0941 87.4978 70.961 87.483C70.961 87.4978 70.961 87.483 70.961 87.483Z" fill="#F8F4ED"/>
<path d="M62.0419 17.4431C60.4678 17.4431 58.8937 17.3549 57.3343 17.4726C55.8043 17.5903 54.5539 17.0754 53.4211 16.1338C51.3616 14.4274 50.0523 12.3531 50.5378 9.55797C51.0674 6.46863 53.4947 4.08542 56.6282 3.42342C57.1872 3.30573 57.7315 3.24689 58.3052 3.24689C60.2177 3.2616 62.1301 3.20275 64.0426 3.2616C66.72 3.34987 69.368 3.58524 71.81 4.86511C73.0164 5.49769 73.9873 6.36565 74.561 7.6161C74.7817 8.10157 74.9877 8.60174 74.1933 8.82241C73.8255 8.92539 73.9726 9.26375 74.0167 9.51384C74.2521 10.6613 75.1348 11.3233 75.9586 12C76.2675 12.2648 76.547 12.5002 76.5618 12.9415C76.5912 13.7359 76.2087 14.192 75.4143 14.2361C74.9288 14.2508 74.4286 14.2802 73.9432 14.2361C71.9424 14.089 70.4125 14.9275 69.2944 16.5163C68.7796 17.2372 68.2058 17.502 67.3232 17.4579C65.5725 17.399 63.8072 17.4431 62.0419 17.4431Z" fill="#F8F4ED"/>
<path d="M82.3784 74.9056C84.9823 74.9056 87.5714 74.9056 90.1753 74.9056C90.3518 74.9056 90.5137 74.9056 90.6902 74.9056C91.0138 74.935 91.3816 74.9644 91.3669 75.4058C91.3522 75.8324 91.0138 75.8765 90.6755 75.8912C90.6019 75.8912 90.5284 75.8912 90.4548 75.8912C85.2618 75.8912 80.0687 76.0383 74.8757 75.9942C71.345 75.9501 68.3292 73.5374 67.7408 70.1833C67.4024 68.2856 67.9614 66.5938 69.1972 65.1226C69.8739 64.3135 70.6977 63.6515 71.6392 63.1513C74.9492 61.3566 75.1846 56.4578 72.0511 54.3541C70.9919 53.6479 69.918 53.0006 69.1236 51.9414C66.4903 48.396 68.138 44.2033 71.1685 42.4233C72.1688 41.8348 73.2427 41.4229 74.4196 41.3788C74.7874 41.3641 75.2876 41.2317 75.3317 41.8348C75.3612 42.3792 74.8904 42.335 74.5373 42.3792C72.4336 42.5998 70.786 43.5855 69.6385 45.3655C68.4028 47.278 68.6234 49.8819 70.1387 51.5736C70.6977 52.1915 71.3303 52.7211 72.0659 53.133C76.3615 55.5604 76.2144 61.6361 72.3748 63.9458C71.4627 64.4901 70.5653 65.005 69.9033 65.8582C67.476 68.9623 68.9618 72.493 71.6098 74.0523C72.6249 74.6555 73.7135 74.9497 74.9051 74.935C77.3766 74.8909 79.8775 74.9203 82.3784 74.9056Z" fill="#F8F4ED"/>
<path d="M39.9462 96.0002C36.5038 95.8678 33.3115 94.941 30.8106 92.293C30.4575 91.9105 30.2368 91.9252 29.8838 92.3224C29.516 92.7343 29.0599 93.0874 28.6186 93.4405C28.3538 93.6464 28.0301 93.7788 27.7653 93.4699C27.4858 93.1463 27.6918 92.8667 27.9566 92.6608C28.648 92.1165 29.2806 91.5133 29.8249 90.8072C30.178 90.3512 30.4869 90.3806 30.8988 90.9102C31.7079 91.9841 32.7524 92.7932 33.9146 93.4405C38.4309 95.9561 44.8597 95.3529 48.4786 91.5575C48.6993 91.3221 48.8758 91.0573 49.0818 90.8219C49.479 90.3659 49.7879 90.3659 50.1557 90.8366C53.9953 95.7207 62.1012 96.2797 66.9264 92.3519C67.456 91.9252 67.9415 91.4251 68.3534 90.8808C68.7653 90.3512 69.089 90.3659 69.5156 90.8955C70.0305 91.528 70.5895 92.1018 71.2368 92.5872C71.3104 92.6461 71.3986 92.7049 71.4575 92.7785C71.6781 92.9844 71.7664 93.2492 71.6046 93.4993C71.4133 93.7788 71.1191 93.72 70.8837 93.5729C70.3541 93.2492 69.8687 92.8814 69.4715 92.4107C69.089 91.9547 68.8389 91.9399 68.3828 92.3813C66.1762 94.5879 63.4546 95.6765 60.3653 95.9119C56.9523 96.1767 53.8629 95.3676 51.1267 93.2787C50.7442 92.9844 50.3911 92.6314 50.0527 92.2783C49.7585 91.9694 49.5526 91.9252 49.2289 92.2636C46.7133 94.8233 43.5504 95.8825 39.9462 96.0002Z" fill="#F8F4ED"/>
<path d="M83.6384 68.0355C82.9322 68.0355 82.2114 68.0502 81.5052 68.0355C80.6961 68.0208 80.4607 67.6972 80.6373 66.9028C80.9021 65.6965 81.7259 64.9021 82.6821 64.2254C83.8002 63.431 85.1095 63.0632 86.4629 62.9014C89.0079 62.6219 91.4647 62.872 93.6272 64.3872C94.4805 64.9903 95.1719 65.7259 95.3926 66.8292C95.7162 68.5063 94.9071 69.6685 93.6567 70.5805C92.4503 71.4632 91.0528 71.9487 89.5817 72.1105C87.7428 72.3164 85.9186 72.2135 84.168 71.522C83.3883 71.2131 83.3147 70.7865 83.9473 70.2422C84.6387 69.6537 85.3448 69.08 86.0363 68.5063C86.154 68.418 86.3011 68.315 86.2569 68.1532C86.1981 67.9767 86.0069 68.0355 85.8745 68.0355C85.1095 68.0355 84.3739 68.0355 83.6384 68.0355Z" fill="#F8F4ED"/>
<path d="M36.8605 11.8681C35.9778 11.8681 35.0952 11.8681 34.2125 11.8681C33.933 11.8681 33.6682 11.8534 33.6682 11.4562C33.7123 9.5437 33.4917 7.63125 33.7859 5.73352C34.3155 2.30582 38.0963 0.393367 41.2003 1.92333C42.3331 2.48235 42.3331 2.46764 43.1422 1.4967C43.4658 1.0995 43.8336 0.746435 44.1867 0.363945C44.4809 0.0550104 44.8339 -0.180368 45.187 0.187411C45.5107 0.525768 45.187 0.819991 44.9516 1.07008C44.422 1.61439 43.8924 2.15871 43.3481 2.68831C43.0245 2.99724 42.9362 3.24733 43.2451 3.67395C44.4367 5.39516 44.525 7.27819 43.5688 9.08766C42.6273 10.853 41.0973 11.8975 38.9936 11.8681C38.2875 11.8681 37.5814 11.8681 36.8605 11.8681Z" fill="#F8F4ED"/>
<path d="M9.00876 33.0518C8.99405 36.1706 6.75796 38.4802 3.91871 38.6126C3.40382 38.642 3.1096 38.4802 2.91835 37.98C1.50608 34.5376 3.84515 30.8157 7.53764 30.6098C8.08196 30.5803 8.4056 30.7422 8.59685 31.2571C8.84694 31.9632 9.00876 32.6399 9.00876 33.0518Z" fill="#F8F4ED"/>
<path d="M3.46333 49.7493C6.27316 49.764 8.64165 52.1177 8.68579 54.9423C8.68579 55.3836 8.50925 55.6484 8.08263 55.8396C4.69907 57.296 0.888887 54.9423 0.697642 51.2645C0.66822 50.6908 0.830043 50.3524 1.38907 50.1612C1.93338 49.9552 2.84547 49.7493 3.46333 49.7493Z" fill="#F8F4ED"/>
<path d="M40.9615 89.998C39.1226 89.998 37.8722 88.3503 38.3871 86.585C38.8578 84.9814 39.8582 83.6574 40.7703 82.304C40.9321 82.0539 41.0645 82.1127 41.2116 82.3334C42.1237 83.7016 43.1241 85.0109 43.5801 86.6144C44.0803 88.3797 42.8004 90.0127 40.9615 89.998Z" fill="#F8F4ED"/>
<path d="M43.7746 16.4586C45.5105 16.4586 47.2612 16.4586 48.9971 16.4586C49.3207 16.4586 49.7621 16.3704 49.7768 16.8853C49.7915 17.4002 49.3943 17.4296 48.9971 17.4296C45.5105 17.4296 42.0387 17.4296 38.5522 17.4296C38.508 17.4296 38.4492 17.4296 38.405 17.4296C38.0373 17.4296 37.7725 17.2972 37.7725 16.8853C37.7725 16.4733 38.0961 16.4586 38.405 16.4586C39.8026 16.4586 41.2002 16.4586 42.5977 16.4586C42.9949 16.4586 43.3774 16.4586 43.7746 16.4586Z" fill="#F8F4ED"/>
<path d="M83.1252 17.4421C82.1395 17.4421 81.1686 17.4421 80.1829 17.4421C79.9917 17.4421 79.7857 17.4421 79.5945 17.4127C79.3297 17.3686 79.1384 17.2362 79.1531 16.9272C79.1678 16.6624 79.3444 16.53 79.5798 16.5006C79.7416 16.4712 79.9181 16.4712 80.0947 16.4712C82.1101 16.4712 84.1108 16.4712 86.1262 16.4712C86.1557 16.4712 86.1704 16.4712 86.1998 16.4712C86.5234 16.5006 86.9648 16.3829 86.9795 16.8978C87.0089 17.4127 86.6117 17.4568 86.2145 17.4568C85.1847 17.4421 84.1549 17.4421 83.1252 17.4421Z" fill="#F8F4ED"/>
<path d="M38.7878 48.4987C38.7878 46.5127 38.7731 44.5267 38.7878 42.5407C38.8025 38.8041 41.6565 35.4646 45.3637 34.8909C47.0849 34.6261 48.8355 34.582 50.5567 34.9645C54.1315 35.7441 56.6912 38.8335 56.8236 42.5407C56.8825 44.3796 56.9119 46.2038 56.4264 48.0132C55.2201 52.456 50.9833 55.7219 46.3787 55.7366C44.2015 55.7366 42.0095 55.7366 39.8323 55.7366C38.8172 55.7366 38.8172 55.7366 38.8025 54.6774C38.7878 52.6178 38.7878 50.5583 38.7878 48.4987Z" fill="#143E40"/>
<path d="M23.4555 22.5919C23.4555 21.9594 23.3673 21.2974 23.4702 20.6795C23.838 18.6052 25.8093 17.2518 28.119 17.4136C30.0755 17.546 31.5614 19.1642 31.7967 21.1797C32.2675 25.3576 28.5897 30.3153 23.1613 30.5065C18.7038 30.6537 14.6436 27.4466 13.9227 22.9156C13.6432 21.165 13.805 19.5173 15.3497 18.3257C16.762 17.2518 18.3213 17.0605 19.9101 17.7961C21.4548 18.5022 22.161 19.8409 22.2198 21.518C22.2492 22.3566 22.2345 23.1804 22.2345 24.0189C22.2345 24.475 22.2051 24.9899 22.8377 24.9751C23.4555 24.9604 23.4114 24.4161 23.4114 23.9748C23.4114 23.504 23.4114 23.048 23.4114 22.5772C23.4114 22.5919 23.4261 22.5919 23.4555 22.5919Z" fill="#143E40"/>
<path d="M13.8082 35.4785C13.8082 32.6687 13.8082 29.8442 13.8082 27.0343C13.8082 26.8872 13.7052 26.6518 13.9259 26.593C14.0583 26.5636 14.1171 26.7843 14.1907 26.9019C15.9707 29.5794 18.4128 31.1976 21.6345 31.6095C21.8993 31.6389 22.2377 31.5948 22.2377 32.0655C22.1936 34.184 22.4289 36.3318 21.6345 38.3913C20.3694 41.6572 18.148 43.8197 14.6467 44.5406C13.8817 44.7024 13.8376 44.7024 13.8376 43.9374C13.8229 41.1276 13.8376 38.3031 13.8376 35.4932C13.8229 35.4785 13.8082 35.4785 13.8082 35.4785Z" fill="#143E40"/>
<path d="M31.8865 28.0066C31.9601 31.7874 30.5037 34.8031 27.326 36.9068C26.208 37.6424 24.9723 38.0984 23.6482 38.2897C22.9421 38.3927 22.8833 38.3338 23.0598 37.6718C23.5011 35.9653 23.4423 34.2294 23.3982 32.4935C23.3834 31.9051 23.5158 31.655 24.1631 31.5667C27.3408 31.1695 29.7681 29.5366 31.5187 26.8738C31.607 26.7414 31.6511 26.4766 31.8277 26.5208C32.0042 26.5649 31.8865 26.815 31.9012 26.9768C31.8865 27.3152 31.8865 27.6682 31.8865 28.0066Z" fill="#143E40"/>
<path d="M30.5465 16.7819C30.5318 17.0467 30.3847 16.9437 30.267 16.8849C29.8257 16.6495 29.3696 16.473 28.8989 16.3847C26.5157 15.9434 24.5444 16.6348 23.1027 18.6208C22.9261 18.8709 22.8526 19.1504 22.5289 18.6796C20.896 16.2964 18.2186 15.605 15.5559 16.826C15.4087 16.8996 15.2322 17.1056 15.1145 16.9732C14.9968 16.8408 15.2028 16.6789 15.2911 16.5465C18.6599 11.1476 26.9423 11.1034 30.37 16.473C30.4141 16.5612 30.4877 16.6642 30.5465 16.7819Z" fill="#143E40"/>
<path d="M27.0004 42.1285C28.8834 42.1285 30.7665 42.1285 32.6495 42.1285C32.7525 42.1285 32.8849 42.0843 32.9584 42.202C32.8702 42.2167 32.7819 42.2462 32.6789 42.2609C28.4127 42.7905 24.1317 43.3201 19.8655 43.8497C19.7478 43.8644 19.6154 43.8791 19.4977 43.8791C19.3947 43.8791 19.2476 43.9527 19.1888 43.8203C19.174 43.7761 19.2917 43.6732 19.3506 43.5996C19.7625 43.1877 20.2038 42.7905 20.601 42.3638C20.8364 42.099 21.1159 42.1285 21.4101 42.1285C23.2785 42.1285 25.1321 42.1285 27.0004 42.1285Z" fill="#143E40"/>
<path d="M25.339 80.51C22.7351 80.51 20.1459 80.5248 17.5421 80.51C10.3189 80.4659 4.83161 72.5808 7.37664 65.8431C8.78892 62.1212 11.7017 60.091 15.4972 59.2231C15.8503 59.1348 16.2181 59.1054 16.5858 59.0613C16.9683 59.0171 16.9978 59.1495 16.8065 59.4585C16.1592 60.5324 15.7326 61.7093 15.4825 62.945C15.2618 64.0924 15.4089 64.2837 16.5417 64.372C18.1158 64.5044 19.6458 64.7986 21.058 65.5636C22.2938 66.2403 23.25 67.1818 23.8237 68.5058C24.0591 69.0501 23.8679 69.0795 23.4265 69.0354C21.4258 68.8 19.4104 68.9618 17.395 68.9177C17.2773 68.9177 17.1449 68.903 17.0272 68.9324C16.6888 68.9912 16.424 69.1531 16.4534 69.565C16.4829 69.918 16.7182 70.0799 17.0419 70.0946C17.292 70.1093 17.5274 70.0946 17.7774 70.0946C19.5869 70.124 21.4111 69.9769 23.2206 70.1681C26.9278 70.5359 29.7523 72.3748 31.8266 75.42C32.7534 76.7881 33.4596 78.2592 33.9744 79.8333C34.1951 80.51 34.1951 80.5247 33.489 80.5247C30.7821 80.51 28.0606 80.51 25.339 80.51Z" fill="#143E40"/>
<path d="M25.2668 55.7075C27.5618 55.7517 29.5331 56.5461 31.2102 58.0907C31.4602 58.3261 31.6221 58.5026 31.2249 58.7527C28.4297 60.5181 27.1057 63.2544 26.1936 66.2702C25.973 67.0204 25.7229 67.756 25.4875 68.5063C25.4581 68.6092 25.4581 68.7858 25.2963 68.7711C25.1491 68.7563 25.1639 68.5945 25.1197 68.4915C24.8402 67.6383 24.5754 66.7703 24.2959 65.9024C23.8251 64.4607 23.2808 63.0484 22.457 61.7538C21.6773 60.5328 20.6328 59.5766 19.4265 58.7969C19.0734 58.5615 18.9999 58.4291 19.3529 58.1054C21.0447 56.5608 23.0013 55.7664 25.2668 55.7075Z" fill="#143E40"/>
<path d="M30.6205 62.0479C30.6352 61.8714 30.5763 61.6654 30.4292 61.5919C29.7966 61.2388 30.2233 61.0034 30.5028 60.7681C30.797 60.518 31.0912 60.2532 31.4149 60.0325C32.4741 59.3116 32.2093 59.1498 32.9448 60.4003C33.3715 61.1211 33.6215 61.9155 33.8422 62.7247C33.9452 63.1219 33.9158 63.2837 33.445 63.3278C31.5473 63.4896 29.7378 63.9604 28.1343 65.0638C28.0607 65.1226 27.9136 65.1962 27.8842 65.1815C27.7665 65.0785 27.8548 64.9608 27.9136 64.8578C28.1343 64.3723 28.3402 63.8721 28.5756 63.3867C28.7816 62.96 28.8993 62.4893 29.5907 62.8865C30.0762 63.1072 30.6499 62.5923 30.6205 62.0479Z" fill="#143E40"/>
<path d="M20.6459 62.9017C20.7489 62.8722 20.9401 62.8722 21.0137 62.784C21.5433 62.122 21.7051 62.7251 21.8669 63.0488C22.1758 63.6519 22.4406 64.2845 22.7201 64.9171C22.7643 65.0054 22.8084 65.1083 22.7054 65.1819C22.676 65.2113 22.573 65.1525 22.5142 65.1083C20.8518 63.9609 18.9982 63.4607 17.0122 63.2841C16.718 63.2547 16.6297 63.137 16.7033 62.8575C16.9681 61.7542 17.3947 60.7244 17.9979 59.7682C18.1597 59.5181 18.3215 59.4445 18.5863 59.6358C19.1453 60.033 19.6897 60.4449 20.2045 60.8862C20.4841 61.1216 20.4988 61.2687 20.1457 61.46C19.822 61.6365 19.6896 61.9601 19.822 62.3426C19.9397 62.7104 20.2193 62.8575 20.6459 62.9017Z" fill="#143E40"/>
<path d="M18.5419 54.2215C18.5713 54.0009 18.4389 53.7949 18.6007 53.6919C18.7772 53.5742 18.9096 53.7802 19.042 53.8685C19.6599 54.2951 20.2778 54.7512 20.9104 55.1631C21.2193 55.369 21.1752 55.4867 20.8662 55.6486C20.2925 55.9281 19.7629 56.2665 19.2627 56.6784C18.9832 56.9138 18.8361 56.9726 18.792 56.5019C18.7331 55.7221 18.6301 54.9424 18.5419 54.2215Z" fill="#143E40"/>
<path d="M32.1947 54.0741C32.1064 54.9567 32.0035 55.8099 31.9299 56.6631C31.9005 56.972 31.8416 57.0897 31.5621 56.8544C31.0472 56.4278 30.5176 56.0453 29.9292 55.7364C29.6644 55.604 29.7085 55.4863 29.9145 55.3245C30.5618 54.839 31.1943 54.3389 31.8416 53.8534C31.9299 53.7799 32.0329 53.6475 32.1506 53.7063C32.283 53.7946 32.18 53.9711 32.1947 54.0741Z" fill="#143E40"/>
<path d="M76.4762 21.8279C78.3445 21.8279 80.1981 21.7691 82.0665 21.8427C88.5394 22.1075 94.468 27.2564 95.7773 33.6263C96.2628 36.0095 96.0568 38.4074 96.1009 40.8053C96.1009 41.0407 96.0715 41.2319 95.7479 41.2319C93.2617 41.2172 90.7313 41.4526 88.3628 40.3787C84.0966 38.4368 81.787 35.1268 81.5074 30.434C81.478 29.8749 81.4927 29.3012 81.5074 28.7422C81.5074 28.3597 81.3897 28.0361 80.9631 28.0213C80.4924 28.0066 80.3453 28.345 80.3305 28.7569C80.1246 33.9205 82.0076 38.0249 86.5092 40.7612C86.7005 40.8789 87.0977 40.9524 87.0536 41.1584C87.0094 41.3643 86.6269 41.2467 86.4063 41.2467C84.4644 41.3202 82.5519 41.2172 80.713 40.467C76.285 38.6722 73.5045 34.509 73.4604 29.5219C73.4457 28.6833 73.4604 27.8595 73.4604 27.021C73.4604 26.6238 73.3427 26.3443 72.8867 26.3443C72.4601 26.359 72.3277 26.6238 72.3718 26.9916C72.4453 27.5653 72.1658 27.683 71.6509 27.683C70.7388 27.6683 69.8415 27.6536 69.0618 27.0798C68.0614 26.3443 67.6201 25.0644 67.9879 23.8875C68.3703 22.6371 69.4148 21.8427 70.7094 21.8427C72.6072 21.8279 74.549 21.8279 76.4762 21.8279Z" fill="#143E40"/>
<path d="M85.2152 47.3507C85.2152 48.7924 85.2005 50.2341 85.2299 51.6905C85.2299 52.1318 85.0975 52.2789 84.6415 52.2789C82.2436 52.2642 79.8456 52.2642 77.4477 52.2642C77.2124 52.2642 76.9328 52.3083 76.8299 52.0141C76.7269 51.7346 76.9181 51.5581 77.08 51.3815C79.6397 48.5717 82.1847 45.7766 84.7445 42.9668C84.8474 42.8491 84.9357 42.6137 85.1269 42.702C85.2888 42.7755 85.2152 43.0109 85.2152 43.1727C85.2299 44.5556 85.2152 45.9531 85.2152 47.3507Z" fill="#143E40"/>
<path d="M68.6491 28.271C68.5608 28.3887 68.5167 28.4769 68.4431 28.5505C67.7958 29.2566 67.1632 29.9628 66.5159 30.6689C66.4571 30.7278 66.3983 30.8455 66.2953 30.7719C66.2806 30.7572 66.3394 30.6101 66.3835 30.5218C66.869 29.698 67.3545 28.8741 67.84 28.0503C67.9135 27.9326 67.9576 27.7413 68.1489 27.8738C68.3107 27.9914 68.4725 28.1238 68.6491 28.271Z" fill="#143E40"/>
<path d="M68.207 86.4094C66.5447 86.3211 64.5292 86.5712 62.5285 86.2476C60.4984 85.9239 58.6154 85.2031 56.9089 84.0409C56.4823 83.7467 56.5117 83.6143 56.9236 83.3495C59.2332 81.8196 61.7635 81.0105 64.5145 80.9811C67.5009 80.9369 70.4872 80.9664 73.4736 80.9664C73.6501 80.9664 73.9149 80.9222 73.9591 81.0105C74.0915 81.2164 73.8267 81.3341 73.7237 81.4812C72.6498 82.9376 72.6498 84.4381 73.7237 85.8798C73.8267 86.0122 74.0473 86.1299 73.9738 86.2917C73.8855 86.5124 73.6207 86.3947 73.4442 86.3947C71.826 86.4094 70.193 86.4094 68.207 86.4094Z" fill="#143E40"/>
<path d="M80.4044 80.9668C81.5224 80.9668 82.6552 80.9815 83.7732 80.9668C84.2146 80.9521 84.3028 81.0698 84.1999 81.5111C83.5379 84.0708 81.7872 85.4978 79.3599 86.2187C78.5802 86.454 77.7711 86.4688 76.962 86.3952C75.4173 86.2481 74.0492 84.9388 74.0786 83.6442C74.1227 82.2908 75.535 81.0256 77.1091 80.9815C78.1977 80.9521 79.301 80.9815 80.4044 80.9668Z" fill="#143E40"/>
<path d="M50.627 83.6866C50.627 83.2159 50.6564 82.7599 50.627 82.2891C50.5976 81.8625 50.7888 81.7889 51.1566 81.8478C52.3923 82.0537 53.3633 82.7451 54.2901 83.5101C54.4372 83.6278 54.4372 83.7308 54.2901 83.8632C53.3191 84.6723 52.3041 85.3784 51.0095 85.555C50.6711 85.5991 50.627 85.4814 50.6417 85.2166C50.6417 84.7164 50.627 84.2015 50.627 83.6866Z" fill="#143E40"/>
<path d="M61.8796 4.33632C63.9098 4.29218 66.3812 4.3216 68.8086 4.91005C70.3532 5.27783 71.7949 5.85156 72.8983 7.05788C73.016 7.19028 73.2513 7.3521 73.1778 7.52864C73.0748 7.7493 72.8247 7.57277 72.6482 7.57277C65.8516 7.60219 60.3055 10.2355 56.0982 15.5903C55.6862 16.1199 55.4214 16.1641 54.8771 15.811C53.3177 14.7959 52.082 13.5455 51.6701 11.6919C51.1405 9.27926 52.1261 7.38152 53.9356 5.86627C55.2008 4.80707 56.6866 4.30689 58.349 4.3216C59.3787 4.35103 60.4085 4.33632 61.8796 4.33632Z" fill="#143E40"/>
<path d="M74.0313 13.1781C71.7363 12.9869 69.9122 13.8401 68.5735 15.6937C68.191 16.2233 67.7349 16.3851 67.0876 16.3704C63.9248 16.341 60.7766 16.3557 57.6137 16.3557C57.4519 16.3557 57.2312 16.444 57.1429 16.2969C57.04 16.1203 57.2606 16.0026 57.3636 15.885C60.7177 11.8394 64.984 9.4709 70.2211 8.88246C70.9567 8.79419 71.6775 8.73534 72.4131 8.75006C72.6484 8.75006 72.8397 8.75006 72.8691 9.0737C72.9721 10.6625 73.8989 11.7805 75.0905 12.7221C75.2082 12.8103 75.4583 12.8692 75.3847 13.0751C75.3111 13.2664 75.0905 13.1781 74.9287 13.1781C74.6197 13.1928 74.3255 13.1781 74.0313 13.1781Z" fill="#143E40"/>
<path d="M85.0239 66.9471C84.0971 66.9471 83.1703 66.9324 82.2288 66.9471C81.8168 66.9471 81.758 66.8 81.9492 66.4616C82.3906 65.7114 83.0232 65.1818 83.7881 64.8287C86.6715 63.5194 89.5549 63.5047 92.4088 64.917C92.9384 65.1818 93.4092 65.5348 93.777 66.0056C94.6008 67.0354 94.5567 68.1534 93.6446 69.1097C92.3794 70.419 90.7465 70.875 89.0106 71.0663C87.8631 71.184 86.7156 71.1398 85.5829 70.8309C85.4652 70.8015 85.3034 70.7721 85.2739 70.6985C85.2004 70.5367 85.3769 70.4484 85.4946 70.3601C86.392 69.5952 87.2894 68.8449 88.2015 68.0946C88.4663 67.8739 88.6722 67.6533 88.5398 67.2855C88.4221 66.9471 88.1132 66.9324 87.8043 66.9324C86.8922 66.9471 85.9507 66.9471 85.0239 66.9471Z" fill="#143E40"/>
<path d="M37.3603 10.8249C36.6983 10.8249 36.0363 10.8102 35.3743 10.8249C34.9476 10.8396 34.7564 10.722 34.7711 10.2512C34.7858 9.0743 34.727 7.89741 34.7564 6.72052C34.8594 3.57233 37.8605 1.60104 40.6261 2.83677C41.4058 3.18984 41.4058 3.18984 40.8321 3.77829C39.8317 4.82278 38.8461 5.86727 37.8457 6.91176C37.5515 7.2207 37.1837 7.55905 37.6104 7.95625C38.0517 8.38288 38.4195 8.00039 38.7284 7.67674C39.7582 6.60283 40.8027 5.52892 41.8177 4.44029C42.1708 4.0578 42.3032 4.14607 42.5386 4.52856C44.098 7.0883 42.3326 10.5748 39.3463 10.7808C38.6843 10.8249 38.0223 10.7808 37.3603 10.7808C37.3603 10.8102 37.3603 10.8249 37.3603 10.8249Z" fill="#143E40"/>
<path d="M3.58301 35.9055C3.58301 33.8754 5.06884 32.1395 7.05484 31.7864C7.46676 31.7128 7.62858 31.8158 7.76098 32.1836C8.52596 34.508 6.71649 37.2443 4.30386 37.4796C3.98021 37.5091 3.86252 37.3914 3.78896 37.1266C3.65656 36.7294 3.58301 36.3175 3.58301 35.9055Z" fill="#143E40"/>
<path d="M6.11193 55.1918C3.96411 55.2065 2.12521 53.6178 1.83099 51.6171C1.78686 51.2934 1.86041 51.1316 2.18406 51.0139C4.40544 50.2048 7.18585 51.8966 7.5242 54.265C7.58305 54.7211 7.46536 54.9712 7.00931 55.0447C6.67096 55.1036 6.3326 55.1624 6.11193 55.1918Z" fill="#143E40"/>
<path d="M40.9908 88.941C39.9022 88.941 39.1225 87.9406 39.4314 86.8961C39.711 85.9399 40.2553 85.1308 40.7701 84.2922C40.9025 84.0716 41.0202 84.0274 41.182 84.2775C41.6969 85.1161 42.2412 85.9252 42.5207 86.8814C42.8297 87.9259 42.0794 88.9263 40.9908 88.941Z" fill="#143E40"/>
<path d="M27.3723 22.6065C26.5926 22.6212 26.0189 22.0622 26.0042 21.2973C25.9895 20.5323 26.5632 19.9291 27.3135 19.8997C28.0932 19.8703 28.7258 20.4734 28.7258 21.2678C28.711 22.0475 28.1667 22.5918 27.3723 22.6065Z" fill="#F8F4ED"/>
<path d="M18.294 22.6058C17.4996 22.6205 16.9259 22.0909 16.9112 21.3112C16.8817 20.5168 17.4996 19.8842 18.2646 19.8989C19.0148 19.8989 19.6033 20.4874 19.618 21.2524C19.618 22.0468 19.0884 22.5911 18.294 22.6058Z" fill="#F8F4ED"/>
<path d="M70.9605 25.5359C70.4751 25.5359 70.1367 25.2122 70.1367 24.7121C70.1367 24.2266 70.4751 23.8735 70.9458 23.8735C71.4019 23.8735 71.7844 24.2413 71.7991 24.6974C71.7991 25.1387 71.4166 25.5359 70.9605 25.5359Z" fill="#F8F4ED"/>
<path d="M80.3437 82.9959C80.329 83.4666 79.9613 83.7903 79.4758 83.7756C79.005 83.7609 78.6667 83.3931 78.6961 82.9223C78.7108 82.4515 79.0933 82.1132 79.5493 82.1279C80.0054 82.1573 80.3584 82.5398 80.3437 82.9959Z" fill="#F8F4ED"/>
<path d="M70.633 11.06C70.633 11.5161 70.2652 11.8986 69.7945 11.8986C69.3238 11.8986 68.9707 11.5455 68.9707 11.06C68.9707 10.5893 69.3385 10.2068 69.7945 10.2068C70.2505 10.2215 70.633 10.604 70.633 11.06Z" fill="#F8F4ED"/>
</svg>
