<svg id="Layer_1" data-name="Layer 1" xmlns="http://www.w3.org/2000/svg" viewBox="0 0 361.17 486.07"><defs><style>.cls-1{fill:#143e40;}</style></defs><title>Untitled-3</title><path class="cls-1" d="M7.62,404.55a20.38,20.38,0,0,1,3.27-.23c3,0,5.31.65,6.84,1.95A6.94,6.94,0,0,1,20,411.89c0,2.76-.77,4.81-2.33,6.15s-4,2-7.3,2A37.63,37.63,0,0,1,4,419.51V395.12h14.7v3H7.61Zm0,12.23a12.37,12.37,0,0,0,2.94.3q6.13,0,6.14-5.15,0-4.73-6.15-4.72a15.72,15.72,0,0,0-2.94.24Z" transform="translate(-0.58 -0.3)"/><path class="cls-1" d="M10.39,420.79a38.82,38.82,0,0,1-6.48-.54l-.62-.11,0-25.76h16.2v4.45H8.36v4.87a21.84,21.84,0,0,1,2.54-.13c3.19,0,5.65.72,7.31,2.13a7.67,7.67,0,0,1,2.57,6.19c0,3-.87,5.24-2.59,6.71s-4.3,2.19-7.78,2.19Zm-5.61-1.91a40.1,40.1,0,0,0,5.63.43c3.11,0,5.41-.62,6.82-1.83s2.07-3.07,2.07-5.59a6.2,6.2,0,0,0-2.05-5.06c-1.39-1.17-3.52-1.77-6.35-1.77h0a19.07,19.07,0,0,0-3.15.23l-.86.15v-8.1H18v-1.48H4.76Zm5.79-1.05a13.86,13.86,0,0,1-3.12-.32l-.57-.14V406.84l.6-.12a14.48,14.48,0,0,1,3.09-.25,8.24,8.24,0,0,1,5,1.33,4.89,4.89,0,0,1,1.83,4.13C17.45,414.62,16.26,417.82,10.57,417.83Zm-2.2-1.65a13.36,13.36,0,0,0,2.2.16c4.84,0,5.4-2.52,5.4-4.41A3.48,3.48,0,0,0,14.72,409a6.85,6.85,0,0,0-4.15-1h0a16.28,16.28,0,0,0-2.2.13Z" transform="translate(-0.58 -0.3)"/><path class="cls-1" d="M28.51,419.7l0-24.59h3.92l0,24.59Z" transform="translate(-0.58 -0.3)"/><path class="cls-1" d="M27.77,420.44l0-26.08h5.41v26.08Zm1.47-24.59V419h2.44l0-23.11Z" transform="translate(-0.58 -0.3)"/><path class="cls-1" d="M43.92,398.2a11.14,11.14,0,0,1,8.56-3.44A11.1,11.1,0,0,1,61,398.19a12.91,12.91,0,0,1,3.21,9.19q0,5.76-3.2,9.2A11.13,11.13,0,0,1,52.49,420a11.15,11.15,0,0,1-8.56-3.43c-2.14-2.29-3.2-5.35-3.21-9.19A13,13,0,0,1,43.92,398.2Zm2.69,16.22A7.4,7.4,0,0,0,52.49,417a7.37,7.37,0,0,0,5.88-2.58,12.2,12.2,0,0,0,0-14.05,7.37,7.37,0,0,0-5.88-2.57,7.37,7.37,0,0,0-5.88,2.58,12.2,12.2,0,0,0,0,14.05Z" transform="translate(-0.58 -0.3)"/><path class="cls-1" d="M52.48,420.76a11.9,11.9,0,0,1-9.09-3.66,15.55,15.55,0,0,1,0-19.41h0a11.91,11.91,0,0,1,9.1-3.68h0a11.91,11.91,0,0,1,9.09,3.67,15.55,15.55,0,0,1,0,19.41,11.9,11.9,0,0,1-9.1,3.67Zm-8-22.06a14.1,14.1,0,0,0,0,17.38,10.36,10.36,0,0,0,8,3.2h0a10.33,10.33,0,0,0,8-3.21,14.07,14.07,0,0,0,0-17.38,10.35,10.35,0,0,0-8-3.19h0a10.36,10.36,0,0,0-8,3.2Zm8,19a8.11,8.11,0,0,1-6.43-2.83h0a12.93,12.93,0,0,1,0-15A8.15,8.15,0,0,1,52.48,397h0a8.16,8.16,0,0,1,6.45,2.83,13,13,0,0,1,0,15,8.1,8.1,0,0,1-6.45,2.84Zm-5.31-3.8a6.63,6.63,0,0,0,5.31,2.32h0a6.58,6.58,0,0,0,5.32-2.33,11.46,11.46,0,0,0,0-13.07,6.61,6.61,0,0,0-5.32-2.32h0a6.63,6.63,0,0,0-5.32,2.32,11.53,11.53,0,0,0,0,13.08Z" transform="translate(-0.58 -0.3)"/><path class="cls-1" d="M75.33,410.41v9.26h-3.6l0-24.42a48.57,48.57,0,0,1,7.19-.51c3,0,5.29.65,6.83,2a6.93,6.93,0,0,1,2.33,5.6q0,8.26-9.15,8.26C77.77,410.57,76.57,410.52,75.33,410.41Zm0-3a20,20,0,0,0,3.27.27,6.76,6.76,0,0,0,4.41-1.3,4.63,4.63,0,0,0,1.53-3.73A4.55,4.55,0,0,0,83,399a6.76,6.76,0,0,0-4.44-1.26,19.69,19.69,0,0,0-3.27.24Z" transform="translate(-0.58 -0.3)"/><path class="cls-1" d="M71,420.42l0-25.81.64-.1a50,50,0,0,1,7.29-.51h0c3.16,0,5.62.72,7.3,2.14a7.69,7.69,0,0,1,2.58,6.17c0,3-.85,5.23-2.53,6.75s-4.13,2.25-7.35,2.26c-.93,0-1.88,0-2.86-.11v9.2Zm1.47-24.53v23h2.11v-9.34l.81.08c1.21.1,2.39.16,3.52.16,2.85,0,5-.63,6.37-1.88s2-3.12,2-5.64a6.23,6.23,0,0,0-2.07-5c-1.4-1.19-3.53-1.79-6.33-1.79h0A49.22,49.22,0,0,0,72.47,395.89Zm6.11,12.53a20.17,20.17,0,0,1-3.37-.28l-.62-.1V397.31l.62-.1a17.47,17.47,0,0,1,3.4-.25,7.41,7.41,0,0,1,4.91,1.44,5.23,5.23,0,0,1,1.77,4.25,5.3,5.3,0,0,1-1.79,4.29,7.38,7.38,0,0,1-4.89,1.48Zm-2.51-1.65a19.34,19.34,0,0,0,2.51.16h0a6,6,0,0,0,3.93-1.12,3.9,3.9,0,0,0,1.27-3.16,3.82,3.82,0,0,0-1.24-3.12,6.1,6.1,0,0,0-4-1.08h0a19.2,19.2,0,0,0-2.52.14Z" transform="translate(-0.58 -0.3)"/><path class="cls-1" d="M96.22,419.66l0-24.6h3.92l0,24.59Z" transform="translate(-0.58 -0.3)"/><path class="cls-1" d="M95.47,420.4V394.32h5.4l0,26.08Zm1.47-24.59,0,23.1h2.43v-23.1Z" transform="translate(-0.58 -0.3)"/><path class="cls-1" d="M115.79,417a6.35,6.35,0,0,0,4.11-1.18,4.11,4.11,0,0,0,1.44-3.37,3.46,3.46,0,0,0-1.73-3.17q-1.74-1-5.79-1h-1.63v-3h1.63q7.09,0,7.09-4.05c0-2.24-1.61-3.37-4.81-3.36a13.43,13.43,0,0,0-6.21,1.89l-1-2.9a16.28,16.28,0,0,1,7.68-2,9.51,9.51,0,0,1,5.77,1.55,5,5,0,0,1,2.08,4.18,5.78,5.78,0,0,1-1.24,3.85,7.53,7.53,0,0,1-4,2.18v.07q5.72.84,5.72,6a6.64,6.64,0,0,1-2.36,5.46,10.07,10.07,0,0,1-6.62,2,15.64,15.64,0,0,1-7.68-2l1-3A13.29,13.29,0,0,0,115.79,417Z" transform="translate(-0.58 -0.3)"/><path class="cls-1" d="M115.94,420.72a16.41,16.41,0,0,1-8-2.11l-.54-.29,1.45-4.42.79.45a12.58,12.58,0,0,0,6.16,1.86h0a5.64,5.64,0,0,0,3.64-1,3.35,3.35,0,0,0,1.17-2.79,2.7,2.7,0,0,0-1.38-2.53c-1-.62-2.84-.93-5.4-.94h-2.37v-4.52h2.38a10.45,10.45,0,0,0,5-.92,2.52,2.52,0,0,0,1.39-2.39,2.16,2.16,0,0,0-.88-1.92,5.69,5.69,0,0,0-3.16-.7h0a12.8,12.8,0,0,0-5.85,1.8l-.78.42L108,396.38l.55-.3a17,17,0,0,1,8-2.11h0a10.21,10.21,0,0,1,6.2,1.69,5.69,5.69,0,0,1,2.38,4.78,6.51,6.51,0,0,1-1.42,4.33,6.43,6.43,0,0,1-2.14,1.62,6.1,6.1,0,0,1,4.06,6.17,7.45,7.45,0,0,1-2.64,6,10.86,10.86,0,0,1-7.09,2.12Zm-6.76-3.12a14.81,14.81,0,0,0,6.76,1.64h0a9.51,9.51,0,0,0,6.15-1.79,5.93,5.93,0,0,0,2.09-4.88c0-3.11-1.62-4.79-5.08-5.3l-.64-.09V406l.56-.21a6.79,6.79,0,0,0,3.6-1.94,5,5,0,0,0,1.06-3.37,4.2,4.2,0,0,0-1.77-3.58,8.81,8.81,0,0,0-5.32-1.4h0a15.21,15.21,0,0,0-6.77,1.65l.5,1.47A13.63,13.63,0,0,1,116.1,397h0a6.84,6.84,0,0,1,4,1,3.58,3.58,0,0,1,1.52,3.13,4,4,0,0,1-2.14,3.68,11.55,11.55,0,0,1-5.69,1.11h-.89v1.55h.92c2.85,0,4.86.37,6.14,1.15a4.15,4.15,0,0,1,2.09,3.8,4.84,4.84,0,0,1-1.7,3.94,7.05,7.05,0,0,1-4.59,1.35h0a13.43,13.43,0,0,1-6.1-1.62Z" transform="translate(-0.58 -0.3)"/><path class="cls-1" d="M136,395v10h11.11V395h3.6v24.59h-3.59V408H136v11.66h-3.6V395Z" transform="translate(-0.58 -0.3)"/><path class="cls-1" d="M131.68,420.38l0-26.08h5.08v10h9.62v-10h5.08l0,26.08h-5.09V408.71h-9.63v11.65Zm1.47-24.6,0,23.11h2.1V407.23h12.59v11.66H150l0-23.11h-2.11v10h-12.6v-10Z" transform="translate(-0.58 -0.3)"/><path class="cls-1" d="M161.39,398.12a12.4,12.4,0,0,1,17.13,0q3.19,3.43,3.21,9.2a13,13,0,0,1-3.2,9.19,12.38,12.38,0,0,1-17.12,0q-3.21-3.42-3.21-9.19T161.39,398.12Zm2.69,16.22a8,8,0,0,0,11.77,0,12.2,12.2,0,0,0,0-14.05,8,8,0,0,0-11.77,0,12.25,12.25,0,0,0,0,14Z" transform="translate(-0.58 -0.3)"/><path class="cls-1" d="M170,420.69a11.92,11.92,0,0,1-9.1-3.67,15.57,15.57,0,0,1,0-19.41h0a11.92,11.92,0,0,1,9.1-3.67h0a11.91,11.91,0,0,1,9.1,3.66,13.71,13.71,0,0,1,3.41,9.7c0,4-1.14,7.29-3.4,9.71a11.89,11.89,0,0,1-9.1,3.68Zm-8-22.06A14.07,14.07,0,0,0,162,416a10.32,10.32,0,0,0,8,3.19h0a10.33,10.33,0,0,0,8-3.2,14.07,14.07,0,0,0,0-17.38,10.33,10.33,0,0,0-8-3.2h0a10.31,10.31,0,0,0-8,3.21Zm8,19a8.15,8.15,0,0,1-6.44-2.83h0a12.93,12.93,0,0,1,0-15A8.13,8.13,0,0,1,170,397h0a8.12,8.12,0,0,1,6.44,2.83,12.93,12.93,0,0,1,0,15,8.13,8.13,0,0,1-6.44,2.84Zm-5.31-3.81a6.6,6.6,0,0,0,5.31,2.32h0a6.6,6.6,0,0,0,5.31-2.32,11.5,11.5,0,0,0,0-13.08,6.63,6.63,0,0,0-5.32-2.32h0a6.64,6.64,0,0,0-5.32,2.33,11.46,11.46,0,0,0,0,13.07Z" transform="translate(-0.58 -0.3)"/><path class="cls-1" d="M189.22,419.6l0-24.6h3.46l7.89,14.48h.06L208.48,395h3.59l0,24.59H208.5l0-18.19h-.06l-6.2,11.46H199l-6.22-11.45h-.06v18.19Z" transform="translate(-0.58 -0.3)"/><path class="cls-1" d="M188.47,420.34V394.26h4.64L200.58,408,208,394.25h4.78v26.08h-5.08V404.2l-5.08,9.39h-4.15l-5.1-9.39v16.13Zm1.47-24.59,0,23.1h2l0-18.19h1.19l.28.39,6,11.06h2.38L208,400.65h1.18l.07.74v17.45h2.11l0-23.11h-2.41l-7.86,14.5h-.89l-.27-.39-7.68-14.1Z" transform="translate(-0.58 -0.3)"/><path class="cls-1" d="M219.41,419.58l8.48-24.6h3.92l8.51,24.58h-3.85L234.4,413h-9.21l-2.05,6.53Zm6.66-9.44h7.45l-3.7-11.79h-.07Z" transform="translate(-0.58 -0.3)"/><path class="cls-1" d="M218.37,420.32l9-26.08h5l9,26.07h-5.45l-2.06-6.54h-8.13l-2,6.54Zm10-24.6-8,23.11h2.14l2-6.54H235l2.06,6.53h2.27l-8-23.1Zm-3.36,15.16,4.15-13.28h1.09l.23.52,4,12.76Zm4.73-10.15-2.71,8.67h5.43Z" transform="translate(-0.58 -0.3)"/><path class="cls-1" d="M251.22,395v10h11.11V395h3.6v24.6h-3.59V407.89H251.23v11.66h-3.6V395Z" transform="translate(-0.58 -0.3)"/><path class="cls-1" d="M246.9,420.3l0-26.08H252v10h9.62v-10h5.08l0,26.08H261.6V408.64H252V420.3Zm1.47-24.59,0,23.1h2.1V407.16h12.59v11.66h2.11l0-23.1h-2.11v10h-12.6v-10Z" transform="translate(-0.58 -0.3)"/><path class="cls-1" d="M275.71,419.54V395h3.92v24.59Z" transform="translate(-0.58 -0.3)"/><path class="cls-1" d="M275,420.28l0-26.08h5.41l0,26.08Zm1.47-24.59,0,23.11h2.43v-23.1Z" transform="translate(-0.58 -0.3)"/><path class="cls-1" d="M288.57,394.94h17.65V398h-7l0,21.5h-3.6V398h-7Z" transform="translate(-0.58 -0.3)"/><path class="cls-1" d="M294.87,420.27V398.78h-7V394.2l19.13,0v4.59h-7v21.5Zm1.47-23,0,21.49h2.1V397.29h7v-1.61H289.31v1.61Z" transform="translate(-0.58 -0.3)"/><path class="cls-1" d="M313.54,394.92h17.64V398h-7v21.49h-3.59l0-21.49h-7Z" transform="translate(-0.58 -0.3)"/><path class="cls-1" d="M319.83,420.25V398.76h-7v-4.59h19.13v4.58h-7l0,21.49Zm1.48-23v21.5h2.11l0-21.5h7v-1.61H314.28v1.62Z" transform="translate(-0.58 -0.3)"/><path class="cls-1" d="M351.09,409.38h-2a6.47,6.47,0,0,0-3.15.52,4.66,4.66,0,0,0-1.52,2.34l-2.71,7.25H338l2.77-7.24q1.2-3.13,2.61-4v-.06a6.41,6.41,0,0,1-3.46-2.49,7.47,7.47,0,0,1-1.28-4.38,5.86,5.86,0,0,1,2.38-5c1.59-1.19,3.95-1.78,7.09-1.79a41.14,41.14,0,0,1,6.54.5v24.43H351.1Zm0-11.62a13.55,13.55,0,0,0-2.61-.23,8.58,8.58,0,0,0-4.79,1,3.49,3.49,0,0,0-1.48,3.08c0,3.24,2.31,4.85,6.93,4.85h2Z" transform="translate(-0.58 -0.3)"/><path class="cls-1" d="M337,420.24l3.16-8.25a11.73,11.73,0,0,1,1.95-3.55,7,7,0,0,1-2.72-2.33,8.14,8.14,0,0,1-1.41-4.8,6.54,6.54,0,0,1,2.67-5.55c1.72-1.29,4.25-1.94,7.54-1.94h0a41.16,41.16,0,0,1,6.62.51l.62.1,0,25.8h-5.08V410.13h-1.22a5.75,5.75,0,0,0-2.76.41,4,4,0,0,0-1.22,2l-2.88,7.73Zm11.23-24.93h0c-3,0-5.19.55-6.64,1.64a5.08,5.08,0,0,0-2.09,4.36,6.79,6.79,0,0,0,1.14,3.95,5.7,5.7,0,0,0,3.08,2.21l.52.16v1l-.35.28c-.54.34-1.38,1.25-2.31,3.65l-2.38,6.24h2.13l2.52-6.76a5.28,5.28,0,0,1,1.82-2.71,7,7,0,0,1,3.55-.64h2.7v10.11H354l0-23.05A40.59,40.59,0,0,0,348.18,395.31Zm.94,11.92a9.68,9.68,0,0,1-5.61-1.34,4.9,4.9,0,0,1-2.06-4.25,4.21,4.21,0,0,1,1.81-3.69,9.19,9.19,0,0,1,5.21-1.16,11.85,11.85,0,0,1,2.76.25l.6.12v10.07h-2.71Zm-.63-9h0a7.9,7.9,0,0,0-4.36.9,2.76,2.76,0,0,0-1.17,2.47,3.41,3.41,0,0,0,1.42,3,8.46,8.46,0,0,0,4.76,1.08h1.23v-7.35A13.17,13.17,0,0,0,348.49,398.27Z" transform="translate(-0.58 -0.3)"/><path class="cls-1" d="M96.19,435.69l7.92,15.86h.07l7.53-15.87h1.84l-8.42,17.42q-2.1,4.32-4.44,5.91a11.24,11.24,0,0,1-6.41,1.61l-.1-1.45a10,10,0,0,0,5.48-1.28,11.64,11.64,0,0,0,3.6-4.69l-9-17.51Z" transform="translate(-0.58 -0.3)"/><path class="cls-1" d="M93.93,461l-.15-2.19h.4a9.6,9.6,0,0,0,5.27-1.22,11.21,11.21,0,0,0,3.4-4.38l-9.19-17.88h2.76l7.72,15.45,7.34-15.46h2.66l-8.68,18c-1.41,2.92-2.95,5-4.57,6.06A11.57,11.57,0,0,1,94.28,461Zm.65-1.45,0,.7a10.66,10.66,0,0,0,5.85-1.53c1.5-1,3-3,4.31-5.77L113,436.05h-1l-7.54,15.87H104l-.17-.2L96,436.06H94.87l8.81,17.14-.08.17a12,12,0,0,1-3.74,4.83A10,10,0,0,1,94.58,459.54Z" transform="translate(-0.58 -0.3)"/><path class="cls-1" d="M124.92,448.1h-.06v12.16h-1.64V435.67h1.63v11.15h.06l11.79-11.16h2.09l-12.54,11.8,12.89,12.79h-2.1Z" transform="translate(-0.58 -0.3)"/><path class="cls-1" d="M122.86,460.63l0-25.33h2.38V446l11.33-10.73h3.18L126.8,447.47l13.25,13.15H136.9l-11.67-11.7v11.7Zm.73-24.59v23.85h.89V447.73H125l.18.11,12,12h1l-12.52-12.43L137.87,436h-1l-11.79,11.16h-.52l-.06-.37V436Z" transform="translate(-0.58 -0.3)"/><path class="cls-1" d="M149,435.86a33.7,33.7,0,0,1,6.11-.55c2.89,0,5.11.63,6.63,1.9a6.66,6.66,0,0,1,2.29,5.44,7.14,7.14,0,0,1-2.3,5.71c-1.53,1.34-3.74,2-6.61,2a37.65,37.65,0,0,1-4.48-.27v10.14H149Zm1.64,12.8a30.12,30.12,0,0,0,4.35.3,8.43,8.43,0,0,0,5.52-1.61,5.6,5.6,0,0,0,1.92-4.56,5.43,5.43,0,0,0-1.9-4.5,8.66,8.66,0,0,0-5.55-1.53,26.43,26.43,0,0,0-4.35.37Z" transform="translate(-0.58 -0.3)"/><path class="cls-1" d="M148.61,460.62l0-25.07.31-.06a34.48,34.48,0,0,1,6.18-.55h0c3,0,5.28.67,6.87,2a7,7,0,0,1,2.42,5.72,7.51,7.51,0,0,1-2.42,6c-1.6,1.4-3.91,2.1-6.86,2.1h0a37.58,37.58,0,0,1-4.08-.22v10.1Zm.73-24.45v23.71h.89V449.69l.41.05a38.77,38.77,0,0,0,4.41.26h0a9.47,9.47,0,0,0,6.37-1.92,6.83,6.83,0,0,0,2.17-5.43,6.35,6.35,0,0,0-2.16-5.15c-1.44-1.21-3.59-1.82-6.39-1.82h0A34.45,34.45,0,0,0,149.34,436.17Zm5.59,13.16a29.33,29.33,0,0,1-4.38-.31l-.31,0V436.82l.31-.05a26,26,0,0,1,4.41-.38h0a9.06,9.06,0,0,1,5.78,1.61,5.81,5.81,0,0,1,2,4.79,6,6,0,0,1-2.06,4.85,8.78,8.78,0,0,1-5.75,1.69Zm-4-1a25.47,25.47,0,0,0,4,.26,8.21,8.21,0,0,0,5.29-1.52,5.19,5.19,0,0,0,1.79-4.28,5.06,5.06,0,0,0-1.76-4.21,8.36,8.36,0,0,0-5.31-1.45h0a25.23,25.23,0,0,0-4,.32Z" transform="translate(-0.58 -0.3)"/><path class="cls-1" d="M187.54,452.44H176.65l-2.74,7.78h-1.69l8.9-24.6h2l9,24.59h-1.76Zm-5.4-15.33h-.07L177.18,451h9.87Z" transform="translate(-0.58 -0.3)"/><path class="cls-1" d="M171.69,460.6l9.17-25.34h2.48l9.24,25.33H190l-2.75-7.78H176.92l-2.74,7.78Zm9.69-24.6-8.64,23.86h.91l2.74-7.78H187.8l2.75,7.78h1L182.82,436Zm-4.73,15.4,5.16-14.66h.52l.16.25,5.08,14.41Zm5.45-13.26-4.4,12.52h8.82Z" transform="translate(-0.58 -0.3)"/><path class="cls-1" d="M199.88,432.93v-4.15h1.54v4.14Zm3.18,27.28V435.62h1.73l0,24.59Zm3.35-27.29v-4.14h1.53v4.14Z" transform="translate(-0.58 -0.3)"/><path class="cls-1" d="M202.69,460.58V435.25h2.47l0,25.33Zm.73-24.59v23.85h1V436Zm-3.92-2.69v-4.89h2.28v4.89Zm.74-4.15v3.4H201v-3.4Zm5.8,4.14v-4.88h2.28v4.88Zm.74-4.14v3.4h.79v-3.4Z" transform="translate(-0.58 -0.3)"/><path class="cls-1" d="M219.06,435.61v10.54h13.72V435.6h1.64v24.59H232.8V447.56H219.07V460.2h-1.63V435.61Z" transform="translate(-0.58 -0.3)"/><path class="cls-1" d="M217.07,460.57l0-25.33h2.38v10.54h13V435.23h2.38v25.33h-2.37V447.93h-13v12.63ZM217.8,436v23.85h.89V447.2h14.47v12.63h.89V436h-.9v10.55H218.69V436Z" transform="translate(-0.58 -0.3)"/><path class="cls-1" d="M261.21,435.58h1.9v24.59h-1.63l0-22h-.06l-13.65,22H245.9V435.59h1.6v22h.07Z" transform="translate(-0.58 -0.3)"/><path class="cls-1" d="M245.53,460.55l0-25.33h2.35v21.2L261,435.21h2.47v25.33h-2.37l0-21.2L248,460.55Zm.73-24.59v23.85h1.29l13.64-22h.58l.07.37V459.8h.89V436h-1.32l-13.65,22h-.58l-.06-.37V436Z" transform="translate(-0.58 -0.3)"/><path class="cls-1" d="M128.59,476.73a3.8,3.8,0,0,1,2.39,1,3,3,0,0,1,.87,2.21,3,3,0,0,1-.87,2.22,3.74,3.74,0,0,1-2.39,1v1.17h-1.26V483.2a3.79,3.79,0,0,1-2.39-1,3,3,0,0,1-.87-2.22,3,3,0,0,1,.86-2.22,3.9,3.9,0,0,1,2.39-1v-1h1.26Zm-1.26,1.09a2.33,2.33,0,0,0-1.47.68,2.34,2.34,0,0,0,0,2.94,2.42,2.42,0,0,0,1.48.68Zm1.26,4.3a2.4,2.4,0,0,0,1.48-.69,2,2,0,0,0,.52-1.46,2,2,0,0,0-.52-1.47,2.42,2.42,0,0,0-1.48-.69Z" transform="translate(-0.58 -0.3)"/><path class="cls-1" d="M127.22,484.49v-1.18a3.88,3.88,0,0,1-2.35-1,3.1,3.1,0,0,1-.9-2.3,3.14,3.14,0,0,1,.9-2.31,3.88,3.88,0,0,1,2.35-1v-1.06h1.5v1.06a3.88,3.88,0,0,1,2.36,1,3.4,3.4,0,0,1,0,4.61,3.88,3.88,0,0,1-2.35,1v1.18Zm.24-8.68v1h-.11a3.7,3.7,0,0,0-2.32,1,2.89,2.89,0,0,0-.82,2.13,2.93,2.93,0,0,0,.82,2.13,3.75,3.75,0,0,0,2.32,1h.11v1.15h1v-1.15h.11a3.7,3.7,0,0,0,2.32-1,2.94,2.94,0,0,0,.82-2.14,2.86,2.86,0,0,0-.83-2.12,3.65,3.65,0,0,0-2.31-1l-.11,0v-1Zm0,6.45-.14,0a2.51,2.51,0,0,1-1.55-.72,2.16,2.16,0,0,1-.55-1.55,2.12,2.12,0,0,1,.55-1.55,2.49,2.49,0,0,1,1.55-.73l.14,0Zm-.25-4.3a2.22,2.22,0,0,0-1.26.63,2.19,2.19,0,0,0,0,2.76,2.22,2.22,0,0,0,1.26.63Zm1.26,4.3v-4.59l.14,0a2.56,2.56,0,0,1,1.55.72,2.47,2.47,0,0,1,0,3.11,2.48,2.48,0,0,1-1.55.72Zm.24-4.3v4a2.16,2.16,0,0,0,1.26-.62,2.2,2.2,0,0,0,0-2.77A2.16,2.16,0,0,0,128.71,478Z" transform="translate(-0.58 -0.3)"/><path class="cls-1" d="M135.69,476.78a4.29,4.29,0,0,1,6,0,5.26,5.26,0,0,1,0,6.49,4.29,4.29,0,0,1-6,0,4.63,4.63,0,0,1-1.12-3.25A4.58,4.58,0,0,1,135.69,476.78Zm.94,5.72a2.55,2.55,0,0,0,2.05.91,2.59,2.59,0,0,0,2.06-.91,4.38,4.38,0,0,0,0-5,2.57,2.57,0,0,0-2.06-.91,2.54,2.54,0,0,0-2.05.91,4.33,4.33,0,0,0,0,5Z" transform="translate(-0.58 -0.3)"/><path class="cls-1" d="M138.68,484.6a4,4,0,0,1-3.08-1.25,5.4,5.4,0,0,1,0-6.66h0a4,4,0,0,1,3.08-1.25h0a4,4,0,0,1,3.08,1.25,5.38,5.38,0,0,1,0,6.66,4,4,0,0,1-3.09,1.25Zm0-8.92h0a3.8,3.8,0,0,0-2.9,1.18h0a5.16,5.16,0,0,0,0,6.32,3.77,3.77,0,0,0,2.9,1.17h0a3.75,3.75,0,0,0,2.9-1.17,5.13,5.13,0,0,0,0-6.32A3.77,3.77,0,0,0,138.68,475.68Zm0,7.85a2.71,2.71,0,0,1-2.15-.95h0a4.5,4.5,0,0,1,0-5.12,2.91,2.91,0,0,1,4.3,0,3.87,3.87,0,0,1,.81,2.56,3.81,3.81,0,0,1-.81,2.56,2.7,2.7,0,0,1-2.15.95Zm-2-1.11a2.44,2.44,0,0,0,2,.86h0a2.47,2.47,0,0,0,2-.86,4.21,4.21,0,0,0,0-4.8,2.64,2.64,0,0,0-3.92,0A3.57,3.57,0,0,0,136,480a3.62,3.62,0,0,0,.74,2.4Z" transform="translate(-0.58 -0.3)"/><path class="cls-1" d="M147.34,475.67v3.55h3.88v-3.55h1.26v8.68h-1.25v-4.11h-3.88v4.11h-1.26v-8.67Z" transform="translate(-0.58 -0.3)"/><path class="cls-1" d="M146,484.48v-8.93h1.51v3.54h3.63v-3.54h1.5v8.92h-1.5v-4.12h-3.63v4.12Zm.24-8.68v8.43h1v-4.11h4.13v4.12h1v-8.44h-1v3.54h-4.13V475.8Z" transform="translate(-0.58 -0.3)"/><path class="cls-1" d="M156.47,483.28a5.67,5.67,0,0,0,.71-1.38,7,7,0,0,0,.27-1.65c.05-.71.08-1.88.07-3.51v-1.07h4.93v7.61h1v3h-1.14v-1.91H157v1.9h-1.14v-3Zm1.44,0h3.29v-6.53h-2.45c0,1.69,0,2.88-.05,3.55a8.66,8.66,0,0,1-.21,1.58A7.82,7.82,0,0,1,157.91,483.28Z" transform="translate(-0.58 -0.3)"/><path class="cls-1" d="M155.72,486.37v-3.22h.69a5.94,5.94,0,0,0,.67-1.29,7.26,7.26,0,0,0,.26-1.62c0-.71.07-1.88.07-3.5v-1.2h5.18v7.61h1v3.22h-1.39v-1.9h-5v1.9Zm.24-3v2.73h.9v-1.91h5.55v1.9h.9V483.4h-1v-7.61h-4.68v.95c0,1.62,0,2.81-.07,3.52a7.72,7.72,0,0,1-.28,1.68,6.37,6.37,0,0,1-.73,1.41l0,0Zm1.74,0,.1-.18a7.25,7.25,0,0,0,.57-1.38,7.74,7.74,0,0,0,.2-1.56c0-.67.05-1.83.05-3.54v-.13h2.7v6.79Zm1.17-6.54c0,1.65,0,2.78-.05,3.43a7.42,7.42,0,0,1-.21,1.61,6.59,6.59,0,0,1-.5,1.25h3v-6.29Z" transform="translate(-0.58 -0.3)"/><path class="cls-1" d="M174.17,483.38a2.21,2.21,0,0,0,1.44-.41,1.48,1.48,0,0,0,.5-1.19,1.22,1.22,0,0,0-.61-1.12,4.12,4.12,0,0,0-2-.37h-.57v-1.07h.57c1.65,0,2.48-.47,2.48-1.42s-.56-1.19-1.68-1.19a4.62,4.62,0,0,0-2.17.67l-.34-1a5.66,5.66,0,0,1,2.68-.71,3.34,3.34,0,0,1,2,.54,1.77,1.77,0,0,1,.72,1.48,2.05,2.05,0,0,1-.43,1.36,2.68,2.68,0,0,1-1.39.77v0a2,2,0,0,1,2,2.13,2.37,2.37,0,0,1-.83,1.92,3.5,3.5,0,0,1-2.31.7,5.43,5.43,0,0,1-2.69-.72l.35-1A4.47,4.47,0,0,0,174.17,483.38Z" transform="translate(-0.58 -0.3)"/><path class="cls-1" d="M174.22,484.58a5.62,5.62,0,0,1-2.74-.73l-.08-.05.42-1.29.13.08a4.45,4.45,0,0,0,2.22.67h0a2.08,2.08,0,0,0,1.36-.39,1.31,1.31,0,0,0,.46-1.09,1.08,1.08,0,0,0-.55-1,4,4,0,0,0-1.95-.35h-.7V479.1h.69a3.68,3.68,0,0,0,1.8-.34,1,1,0,0,0,.55-1,.9.9,0,0,0-.36-.79,2,2,0,0,0-1.19-.28h0a4.56,4.56,0,0,0-2.11.65l-.13.08-.42-1.27.09-.05a5.8,5.8,0,0,1,2.74-.73,3.46,3.46,0,0,1,2.09.57,1.9,1.9,0,0,1,.78,1.58,2.17,2.17,0,0,1-.47,1.44,2.41,2.41,0,0,1-1,.68,2,2,0,0,1,1.67,2.16,2.49,2.49,0,0,1-.87,2,3.63,3.63,0,0,1-2.39.72Zm-2.53-.9a5.35,5.35,0,0,0,2.53.65h0a3.41,3.41,0,0,0,2.23-.66,2.22,2.22,0,0,0,.78-1.83c0-1.16-.62-1.82-1.89-2h-.11v-.21l.1,0a2.52,2.52,0,0,0,1.32-.73,1.93,1.93,0,0,0,.41-1.28,1.62,1.62,0,0,0-.68-1.38,3.22,3.22,0,0,0-1.94-.52,5.47,5.47,0,0,0-2.53.65l.26.79a4.62,4.62,0,0,1,2.1-.62h0a2.33,2.33,0,0,1,1.33.32,1.16,1.16,0,0,1,.47,1,1.27,1.27,0,0,1-.68,1.17,3.9,3.9,0,0,1-1.92.38H173v.82h.46a4.13,4.13,0,0,1,2.07.39,1.33,1.33,0,0,1,.66,1.22,1.58,1.58,0,0,1-.54,1.28,2.32,2.32,0,0,1-1.52.45h0a4.63,4.63,0,0,1-2.21-.63Z" transform="translate(-0.58 -0.3)"/><path class="cls-1" d="M180.09,484.33l3-8.68h1.37l3,8.68h-1.35l-.72-2.31h-3.22l-.71,2.31Zm2.33-3.33H185l-1.29-4.16h0Z" transform="translate(-0.58 -0.3)"/><path class="cls-1" d="M179.92,484.46l3.05-8.93h1.54l3.06,8.92H186l-.72-2.3h-3l-.71,2.31Zm3.23-8.69-2.88,8.44h1l.72-2.31h3.4l.72,2.3h1.09l-2.89-8.43Zm-.9,5.36,1.37-4.41h.18l0,.08,1.34,4.32Zm1.47-3.91-1.13,3.66h2.27Z" transform="translate(-0.58 -0.3)"/><path class="cls-1" d="M191.69,475.65,193.5,479h0l1.81-3.39h1.4l-2.45,4.28,2.52,4.4h-1.48l-1.85-3.5h0l-1.85,3.51h-1.42l2.5-4.41-2.45-4.27Z" transform="translate(-0.58 -0.3)"/><path class="cls-1" d="M190,484.45l2.58-4.53-2.53-4.4h1.74l1.75,3.27,1.75-3.27H197l-2.53,4.4,2.59,4.53h-1.76l-1.79-3.39-1.78,3.39Zm.48-8.68,2.39,4.15,0,.07-2.4,4.21h1.14l1.84-3.51h.15l.06.07,1.82,3.44h1.18l-2.44-4.28,2.38-4.15h-1.12l-1.81,3.39h-.15l-.06-.07-1.78-3.32Z" transform="translate(-0.58 -0.3)"/><path class="cls-1" d="M206.55,484.32h-1.23v-6.48h0l-3.9,6.48h-1.23v-8.68h1.23v6.48h0l3.89-6.48h1.24Z" transform="translate(-0.58 -0.3)"/><path class="cls-1" d="M200,484.44v-8.92h1.48v6.19l3.72-6.2h1.43v8.93H205.2v-6.2l-3.73,6.2Zm.24-8.68v8.44h1l3.9-6.48h.2l0,.13v6.35h1v-8.43h-1l-3.89,6.48h-.2l0-.12v-6.36Z" transform="translate(-0.58 -0.3)"/><path class="cls-1" d="M214.18,476.58a2.83,2.83,0,0,0-2.21.93,3.53,3.53,0,0,0-.84,2.46,3.49,3.49,0,0,0,.86,2.47,2.87,2.87,0,0,0,2.2.92,3.78,3.78,0,0,0,2.11-.66l.4,1a4.65,4.65,0,0,1-2.62.75,4.07,4.07,0,0,1-3.07-1.2,5.18,5.18,0,0,1,0-6.51,4.06,4.06,0,0,1,3.08-1.21,4.68,4.68,0,0,1,2.63.75l-.4,1A3.88,3.88,0,0,0,214.18,476.58Z" transform="translate(-0.58 -0.3)"/><path class="cls-1" d="M214.07,484.55a4.21,4.21,0,0,1-3.15-1.24,5.3,5.3,0,0,1,0-6.67,4.16,4.16,0,0,1,3.17-1.25,4.79,4.79,0,0,1,2.69.77l.09,0-.49,1.21-.13-.08a3.68,3.68,0,0,0-2-.63,2.72,2.72,0,0,0-2.13.88,3.43,3.43,0,0,0-.81,2.38,3.39,3.39,0,0,0,.83,2.39,2.76,2.76,0,0,0,2.11.87h0a3.68,3.68,0,0,0,2-.63l.13-.08.49,1.21-.08,0a4.82,4.82,0,0,1-2.69.77Zm0-8.91a3.92,3.92,0,0,0-3,1.17A4.44,4.44,0,0,0,210,480a4.39,4.39,0,0,0,1.13,3.17,4,4,0,0,0,3,1.17h0a4.58,4.58,0,0,0,2.47-.68l-.31-.74a4,4,0,0,1-2.05.59h0a3,3,0,0,1-2.3-1A3.59,3.59,0,0,1,211,480a3.64,3.64,0,0,1,.86-2.54,3,3,0,0,1,2.31-1h0a4,4,0,0,1,2.06.59l.3-.74A4.53,4.53,0,0,0,214.07,475.64Z" transform="translate(-0.58 -0.3)"/><path class="cls-1" d="M220,475.63h6.17v1.1h-2.45v7.58h-1.26v-7.59H220Z" transform="translate(-0.58 -0.3)"/><path class="cls-1" d="M222.33,484.43v-7.59h-2.46V475.5h6.41v1.34h-2.45v7.59Zm.24-7.83v7.58h1v-7.59H226v-.84h-5.91v.85Z" transform="translate(-0.58 -0.3)"/><path class="cls-1" d="M230.64,475.62l2.14,4.93h0l2.14-4.93h1.42l-2.79,6.06a5,5,0,0,1-1.63,2.17,4.73,4.73,0,0,1-2.57.57l-.08-1.07a4,4,0,0,0,1.87-.31,2.59,2.59,0,0,0,1-1.24l-3-6.18Z" transform="translate(-0.58 -0.3)"/><path class="cls-1" d="M229.26,484.54l-.1-1.31h.13a3.93,3.93,0,0,0,1.81-.3,2.36,2.36,0,0,0,.91-1.13l-3-6.3h1.76l2.06,4.77,2.06-4.78h1.71l-2.88,6.24A5.13,5.13,0,0,1,232,484a4.89,4.89,0,0,1-2.64.59Zm.16-1.07.07.82a4.47,4.47,0,0,0,2.39-.55,5,5,0,0,0,1.58-2.11l2.71-5.89H235l-2.13,4.94h-.17l-.05-.08-2.11-4.86h-1.19l2.91,6.06,0,.05a2.74,2.74,0,0,1-1,1.3A4.06,4.06,0,0,1,229.42,483.47Z" transform="translate(-0.58 -0.3)"/><path class="cls-1" d="M109.49,36.26V23.14A13.13,13.13,0,0,1,122.59,10h0a13.12,13.12,0,0,1,0,26.23ZM122.6,13h0a10.16,10.16,0,0,0-10.14,10.15V33.29h10.15a10.15,10.15,0,0,0,10.13-10.15A10.14,10.14,0,0,0,122.6,13Z" transform="translate(-0.58 -0.3)"/><line class="cls-1" x1="122.02" y1="22.73" x2="137.08" y2="7"/><path class="cls-1" d="M122.6,24.52a1.47,1.47,0,0,1-1-.41,1.49,1.49,0,0,1,0-2.1L136.59,6.28a1.49,1.49,0,1,1,2.15,2.05L123.67,24.06A1.45,1.45,0,0,1,122.6,24.52Z" transform="translate(-0.58 -0.3)"/><path class="cls-1" d="M246.35,321.18a35.89,35.89,0,0,1-24.71-9.82,1.49,1.49,0,0,1-.47-1.08,1.48,1.48,0,0,1,.47-1.08,35.79,35.79,0,0,1,24.72-9.86l44,0h0a1.49,1.49,0,0,1,0,3l-44,0a32.9,32.9,0,0,0-21.48,8,32.88,32.88,0,0,0,21.47,7.94h0l44,0h0a1.49,1.49,0,0,1,0,3l-44,0Z" transform="translate(-0.58 -0.3)"/><path class="cls-1" d="M290.32,321.15A11.35,11.35,0,0,1,279,310.3v-.13a11.34,11.34,0,0,1,11.35-10.86v3a8,8,0,1,0,0,15.9h0v3Z" transform="translate(-0.58 -0.3)"/><path class="cls-1" d="M202.81,321.21V299.37l1.61.13c8.62.72,14.12,4.4,19.74,9.69l1.14,1.08-1.14,1.08c-5.61,5.31-11.11,9-19.73,9.72Zm3-18.57v15.29c6.3-.88,10.76-3.69,15.15-7.65C216.53,306.32,212.07,303.52,205.77,302.64Z" transform="translate(-0.58 -0.3)"/><path class="cls-1" d="M290.34,321.27v-3a17.52,17.52,0,0,0,17.43-16H290.33v-3l20.48,0v1.49a20.49,20.49,0,0,1-20.46,20.49Z" transform="translate(-0.58 -0.3)"/><path class="cls-1" d="M256.6,311.81a1.49,1.49,0,0,1,0-3l23.78,0h0a1.49,1.49,0,0,1,0,3l-23.78,0Z" transform="translate(-0.58 -0.3)"/><circle class="cls-1" cx="296.16" cy="307.36" r="1.98"/><path class="cls-1" d="M266.73,301.72l-2.36-1.82,7.73-10a1.48,1.48,0,0,1,1.18-.58h0a1.46,1.46,0,0,1,1.17.58l7.74,10-2.35,1.82-6.56-8.48Z" transform="translate(-0.58 -0.3)"/><path class="cls-1" d="M256.26,330.93a1.48,1.48,0,0,1-1.16-.55l-7.73-9.64,2.32-1.86,6.57,8.19,6.57-8.2,2.32,1.86-7.73,9.65a1.48,1.48,0,0,1-1.16.55Z" transform="translate(-0.58 -0.3)"/><path class="cls-1" d="M43.45,218.85a1.49,1.49,0,0,1-1.37-2.06c.12-.27,11.89-27.69,41.38-27.71h11a1.49,1.49,0,0,1,0,3h-11c-22.87,0-34.33,17.7-37.62,23.83l61.3,0c12.15,0,25.16-10.47,25.15-26a25.8,25.8,0,0,0-7.8-18.53,25.11,25.11,0,0,0-17.37-7.36H92.64a1.49,1.49,0,1,1,0-3l14.46,0h0a28.16,28.16,0,0,1,19.46,8.22,28.77,28.77,0,0,1,8.68,20.65c0,15.71-12.87,29-28.12,29l-63.69,0Z" transform="translate(-0.58 -0.3)"/><path class="cls-1" d="M51.92,161.52,49,146.12a2.25,2.25,0,0,1,1-2.37,2.16,2.16,0,0,1,2.44.14L64.2,152l-1.69,2.44-10.27-7.08,2.6,13.6ZM50.7,146.29l0,0Z" transform="translate(-0.58 -0.3)"/><path class="cls-1" d="M91.68,161l-2.91-.58,2.65-13.29-10.75,6.77-1.59-2.51,12.23-7.71a2.15,2.15,0,0,1,2.36-.05,2.28,2.28,0,0,1,1,2.33Z" transform="translate(-0.58 -0.3)"/><path class="cls-1" d="M71.76,193.3c-1.24,0-3.79-.75-4.36-2.57-2.74-8.8-9-12.95-20.3-13.46l-1.58-.07.17-1.57c1.55-14.34,12.85-25.15,26.29-25.16h0c13.43,0,24.73,10.79,26.3,25.12l.17,1.57-1.58.08c-11.29.52-17.54,4.68-20.28,13.49-.56,1.82-3.12,2.57-4.36,2.57h-.48Zm-1.55-3.54a3.08,3.08,0,0,0,1.56.57h.47a3.08,3.08,0,0,0,1.55-.57c3-9.55,9.8-14.47,21.33-15.39-2-12-11.71-20.93-23.13-20.93h0c-11.43,0-21.13,8.91-23.12,21C60.4,175.31,67.21,180.22,70.21,189.76Zm3.61,0Z" transform="translate(-0.58 -0.3)"/><path class="cls-1" d="M71,193.3a2.92,2.92,0,0,1-2.85-2.64c-1.94-16.81-6-22-14.39-27.16a2.9,2.9,0,0,1-1.35-2.11,3.1,3.1,0,0,1,.78-2.51A25.4,25.4,0,0,1,72,150.47h0a25.44,25.44,0,0,1,18.77,8.38,3.08,3.08,0,0,1,.78,2.52,3,3,0,0,1-1.34,2.11c-8.38,5.2-12.44,10.36-14.36,27.18A2.91,2.91,0,0,1,73,193.3Zm.11-3h1.76c2.06-18,6.72-23.77,15.75-29.38,0,0,0,0,0-.08A22.49,22.49,0,0,0,72,153.44h0a22.41,22.41,0,0,0-16.59,7.46.15.15,0,0,0,0,.11c9,5.57,13.67,11.39,15.75,29.31Zm-.11,0Z" transform="translate(-0.58 -0.3)"/><path class="cls-1" d="M84.86,172.13H81.29a1.49,1.49,0,0,1,0-3h3.57a1.49,1.49,0,1,1,0,3Z" transform="translate(-0.58 -0.3)"/><path class="cls-1" d="M62.39,172.13H58.82a1.49,1.49,0,1,1,0-3h3.57a1.49,1.49,0,0,1,0,3Z" transform="translate(-0.58 -0.3)"/><path class="cls-1" d="M9,129.47A1.49,1.49,0,0,1,7.5,128.1a1.48,1.48,0,0,1,1.36-1.6l49.71-3.93a1.48,1.48,0,0,1,.23,3L9.1,129.46Z" transform="translate(-0.58 -0.3)"/><path class="cls-1" d="M74.84,124.45a1.49,1.49,0,0,1-.12-3L129,116.94a10.32,10.32,0,0,0,0-2.42l-44.77,0h0a1.49,1.49,0,1,1,0-3l45.65,0h0c2,0,2.1,2.72,2.14,3.61.15,3-.51,4.54-1.94,4.67L75,124.45Z" transform="translate(-0.58 -0.3)"/><path class="cls-1" d="M12.94,114.6a1.49,1.49,0,0,1,0-3l46.16,0h0a1.49,1.49,0,0,1,0,3l-46.16,0Z" transform="translate(-0.58 -0.3)"/><path class="cls-1" d="M86.67,108.18a1.49,1.49,0,0,1-.15-3,26.71,26.71,0,0,0,24-26.66l0-21A1.49,1.49,0,0,1,112,56.06h0a1.48,1.48,0,0,1,1.48,1.48l0,21a29.67,29.67,0,0,1-26.64,29.62Z" transform="translate(-0.58 -0.3)"/><path class="cls-1" d="M58,129.71,58,60.07h3l0,66.62c12.9-.84,23.16-12.53,23.15-26.76l0-14.61h3l0,14.61c0,16.41-12.37,29.77-27.61,29.78Z" transform="translate(-0.58 -0.3)"/><path class="cls-1" d="M85.72,86.81a27.75,27.75,0,0,1,0-55.49h0a27.74,27.74,0,0,1,27.74,27.73h0A27.78,27.78,0,0,1,85.74,86.81Zm0-52.52h0a24.78,24.78,0,0,0,0,49.55h0A24.81,24.81,0,0,0,110.5,59.05h0A24.79,24.79,0,0,0,85.73,34.29Z" transform="translate(-0.58 -0.3)"/><path class="cls-1" d="M73.24,63.91a5.45,5.45,0,0,1-5.45-5.42,5.38,5.38,0,0,1,1.6-3.84,5.51,5.51,0,0,1,3.85-1.59,5.43,5.43,0,1,1,0,10.85Zm0-7.88h0a2.47,2.47,0,0,0-1.76.73,2.42,2.42,0,0,0-.72,1.72,2.47,2.47,0,0,0,2.48,2.45h0a2.47,2.47,0,0,0,2.48-2.45A2.43,2.43,0,0,0,75,56.75,2.49,2.49,0,0,0,73.24,56Z" transform="translate(-0.58 -0.3)"/><path class="cls-1" d="M98.06,63.89a5.43,5.43,0,1,1,0-10.85h0a5.44,5.44,0,0,1,5.45,5.42h0a5.37,5.37,0,0,1-1.59,3.84,5.45,5.45,0,0,1-3.85,1.59Zm0-7.87a2.49,2.49,0,0,0-2.47,2.45,2.38,2.38,0,0,0,.72,1.72,2.45,2.45,0,0,0,1.75.72h0a2.45,2.45,0,0,0,1.75-.72,2.39,2.39,0,0,0,.72-1.73h0A2.46,2.46,0,0,0,98.06,56Z" transform="translate(-0.58 -0.3)"/><path class="cls-1" d="M58,59A14.39,14.39,0,0,1,72.54,44.87h0a13.84,13.84,0,0,1,11.37,5.22A15.27,15.27,0,0,1,87.12,59h-3c0-2.9-2.13-11.18-11.59-11.18h0A11.42,11.42,0,0,0,61,59Z" transform="translate(-0.58 -0.3)"/><path class="cls-1" d="M84.14,59a13.89,13.89,0,0,1,4.28-10A14.67,14.67,0,0,1,98.7,44.85h0a13.79,13.79,0,0,1,11.36,5.23,15.15,15.15,0,0,1,3.2,8.92h-3a12.1,12.1,0,0,0-2.57-7.09,10.87,10.87,0,0,0-9-4.09h0a11.75,11.75,0,0,0-8.21,3.3A10.92,10.92,0,0,0,87.12,59Z" transform="translate(-0.58 -0.3)"/><line class="cls-1" x1="85.05" y1="58.32" x2="85.06" y2="66.84"/><rect class="cls-1" x="83.57" y="56.84" width="2.97" height="11.49" rx="1.49" ry="1.49"/><path class="cls-1" d="M311.32,169.32a47.84,47.84,0,0,1-47.79-47.77v-4.48a1.49,1.49,0,1,1,3,0v4.48a44.88,44.88,0,0,0,44.82,44.8h0l41,0,0-25.68a33.23,33.23,0,0,0-33.19-33.18h0l-54.1,0h0a1.5,1.5,0,0,1-1.49-1.49,1.49,1.49,0,0,1,1.49-1.48l54.09,0h0a36.2,36.2,0,0,1,36.16,36.14l0,28.66-43.94,0Z" transform="translate(-0.58 -0.3)"/><path class="cls-1" d="M341.57,169.3a44.17,44.17,0,0,1-44.1-41.63,1.49,1.49,0,0,1,1.4-1.57,1.51,1.51,0,0,1,1.57,1.4,41.2,41.2,0,0,0,41.13,38.83h10.76l0-21.54a18.19,18.19,0,0,0-18.16-18.16h0a1.48,1.48,0,0,1-1.48-1.48,1.5,1.5,0,0,1,1.5-1.49,21.17,21.17,0,0,1,21.14,21.13v24.51H341.57Z" transform="translate(-0.58 -0.3)"/><path class="cls-1" d="M254.45,130.22a12.86,12.86,0,0,1,0-25.72h13v3h-13a9.89,9.89,0,1,0,0,19.78H265v3H254.45Z" transform="translate(-0.58 -0.3)"/><path class="cls-1" d="M217.57,149.64a1.49,1.49,0,0,1-1.07-2.52l26-26.85a1.49,1.49,0,0,1,2.14,2.07l-16.92,17.48,20.75-13.43a1.48,1.48,0,0,1,1.61,2.49L218.37,149.4A1.49,1.49,0,0,1,217.57,149.64Z" transform="translate(-0.58 -0.3)"/><line class="cls-1" x1="312.78" y1="167.91" x2="312.83" y2="235.48"/><rect class="cls-1" x="311.32" y="166.42" width="2.97" height="70.55" rx="1.49" ry="1.49"/><path class="cls-1" d="M282.57,207.57a4.47,4.47,0,0,1-4.12-2.94,5.42,5.42,0,0,1,1.1-5.84l28.22-31.9a1.49,1.49,0,1,1,2.23,2l-28.34,32a2.45,2.45,0,0,0-.46,2.63,1.59,1.59,0,0,0,1.37,1.09h0l45.51,0h0a1.49,1.49,0,0,1,0,3l-45.51,0Z" transform="translate(-0.58 -0.3)"/><circle class="cls-1" cx="253.68" cy="117.05" r="2.97"/><path class="cls-1" d="M230.07,38.79V21.26a9.44,9.44,0,0,1,9.43-9.44h.73A10.5,10.5,0,0,1,250.71,22.3v.4a16.47,16.47,0,0,1-1.4,6.68l-2.72-1.2a13.53,13.53,0,0,0,1.15-5.48v-.4a7.53,7.53,0,0,0-7.52-7.51h-.73A6.47,6.47,0,0,0,233,21.26V38.79Z" transform="translate(-0.58 -0.3)"/><path class="cls-1" d="M240.47,70.43l-.94-2.82c10.69-3.53,17.07-11.85,17.06-22.25V40.74A11.25,11.25,0,0,0,245.34,29.5h0c-4.34,0-9.12,3.31-11.24,6.51l-2.48-1.64c2.58-3.89,8.12-7.84,13.72-7.84h0a14.22,14.22,0,0,1,14.22,14.21v4.62C259.57,57.11,252.43,66.48,240.47,70.43Z" transform="translate(-0.58 -0.3)"/><rect class="cls-1" x="229.5" y="41.51" width="2.97" height="30.08"/><path class="cls-1" d="M250,22.82a1.5,1.5,0,0,1-1.49-1.49A1.49,1.49,0,0,1,250,19.85h2.33a1.49,1.49,0,1,1,0,3Z" transform="translate(-0.58 -0.3)"/><ellipse class="cls-1" cx="241.68" cy="19.98" rx="1.98" ry="1.96"/><path class="cls-1" d="M231.65,86.22a1.52,1.52,0,0,1-1.49-1.49l0-44.24a7.34,7.34,0,0,1,2.36-5.41,8.11,8.11,0,0,1,5.61-2.2h2.62a10.31,10.31,0,0,1,7.6,3.48,14.31,14.31,0,0,1,2.08,16.75L233,85.44A1.51,1.51,0,0,1,231.65,86.22Zm9.08-50.37h-2.62a5.16,5.16,0,0,0-3.57,1.39,4.46,4.46,0,0,0-1.43,3.25l0,38.36,14.66-27.16a11.33,11.33,0,0,0-1.61-13.28A7.44,7.44,0,0,0,240.73,35.85Z" transform="translate(-0.58 -0.3)"/><circle class="cls-1" cx="91.32" cy="281.71" r="3.96" transform="translate(-173.03 146.78) rotate(-45)"/><path class="cls-1" d="M74.6,330.83a1.54,1.54,0,0,1-.93-.32,1.49,1.49,0,0,1-.24-2.09,17.75,17.75,0,0,1,4-3.79c6.58-4.35,14.51-4.36,22.9-4.34l32.58,0c5.52,0,9.8-2.15,12.71-6.38a22.58,22.58,0,0,0,3.61-11.84l-64.5-40a9.6,9.6,0,0,0-10.42.32L33.67,288.47a1.49,1.49,0,1,1-1.61-2.5l40.65-26.08a12.56,12.56,0,0,1,13.62-.39l65.94,40.91v.82a25.85,25.85,0,0,1-4.15,14.34c-3.45,5-8.69,7.67-15.16,7.67l-32.59,0c-7.92,0-15.41,0-21.25,3.84a14.55,14.55,0,0,0-3.36,3.15A1.49,1.49,0,0,1,74.6,330.83Z" transform="translate(-0.58 -0.3)"/><path class="cls-1" d="M86.6,253.65a4.82,4.82,0,0,1-2.15-.51A4.63,4.63,0,0,1,81.89,249v-5.8a1.49,1.49,0,0,1,1.48-1.49h0a1.49,1.49,0,0,1,1.49,1.49V249a1.64,1.64,0,0,0,.93,1.49,1.74,1.74,0,0,0,1.86-.15l.13-.08,16.11-9.41a1.66,1.66,0,0,0,.64-1.3V228A1.49,1.49,0,0,1,106,226.5h0a1.49,1.49,0,0,1,1.48,1.49v11.55a4.67,4.67,0,0,1-1.9,3.74l-.13.09-16.13,9.41A4.72,4.72,0,0,1,86.6,253.65Zm18.12-11.57h0Z" transform="translate(-0.58 -0.3)"/><path class="cls-1" d="M85.56,262.26a1.45,1.45,0,0,1-.74-.2L16.72,223C6.63,217.18.61,207.12.6,196.08l0-33.42a1.48,1.48,0,0,1,1.49-1.48h0a1.48,1.48,0,0,1,1.48,1.48l0,33.42c0,10,5.47,19.06,14.62,24.32l68.1,39.08a1.49,1.49,0,0,1,.55,2A1.47,1.47,0,0,1,85.56,262.26Z" transform="translate(-0.58 -0.3)"/><rect class="cls-1" x="25.79" y="189.59" width="2.97" height="38.33" rx="1.49" ry="1.49"/><rect class="cls-1" x="53.55" y="228.66" width="2.97" height="15.22" rx="1.49" ry="1.49"/><path class="cls-1" d="M134.2,247.05a13.7,13.7,0,0,1-13.7-14.33l0-.86.76-.39a13.72,13.72,0,0,1,20,12.78l0,.86-.76.4A13.79,13.79,0,0,1,134.2,247.05Zm-10.73-13.32a10.74,10.74,0,0,0,14.9,9.51,10.74,10.74,0,0,0-14.9-9.51Z" transform="translate(-0.58 -0.3)"/><path class="cls-1" d="M318.72,93.65A13.68,13.68,0,0,1,305,79.32l0-.86.77-.39a13.72,13.72,0,0,1,20,12.78l0,.86-.76.4A13.79,13.79,0,0,1,318.72,93.65ZM308,80.34a10.74,10.74,0,0,0,14.91,9.5A10.74,10.74,0,0,0,308,80.34Z" transform="translate(-0.58 -0.3)"/><path class="cls-1" d="M24.6,107.33l-.45-.74A16,16,0,0,1,37.47,82.35l.86,0,.44.74a16,16,0,0,1-13.31,24.24Zm12.06-22a13,13,0,0,0-10.39,18.92A13,13,0,0,0,36.66,85.37Z" transform="translate(-0.58 -0.3)"/><path class="cls-1" d="M27.94,161.31l-.8-.31a16,16,0,0,1-4.34-27.32l.67-.54.81.31a16,16,0,0,1,4.33,27.32ZM24,136.57a13,13,0,0,0,3.38,21.31A13,13,0,0,0,24,136.57Z" transform="translate(-0.58 -0.3)"/><path class="cls-1" d="M130.08,148.55a16,16,0,0,1-14.87-21.86l.32-.8.85-.12a16,16,0,0,1,17.15,21.69l-.31.8-.85.13A16.13,16.13,0,0,1,130.08,148.55Zm2.07-1.63h0Zm-14.47-18.31a13,13,0,0,0,13.39,16.93,13,13,0,0,0-13.39-16.93Z" transform="translate(-0.58 -0.3)"/><line class="cls-1" x1="264.4" y1="22.48" x2="264.45" y2="96.79"/><rect class="cls-1" x="262.94" y="21" width="2.97" height="77.28" rx="1.49" ry="1.49"/><line class="cls-1" x1="284.29" y1="35.35" x2="284.33" y2="96.78"/><rect class="cls-1" x="282.82" y="33.86" width="2.97" height="64.4" rx="1.49" ry="1.49"/><path class="cls-1" d="M192.71,30.49A15.1,15.1,0,0,1,192.7.3h0A15.11,15.11,0,0,1,207.8,15.39h0a15.07,15.07,0,0,1-15.08,15.1Zm0-27.22h0a12.13,12.13,0,1,0,0,24.25h0a12.1,12.1,0,0,0,12.11-12.13h0A12.14,12.14,0,0,0,192.71,3.27Z" transform="translate(-0.58 -0.3)"/><path class="cls-1" d="M104.62,344.75a23.42,23.42,0,0,1-20.05-11.21,1.49,1.49,0,0,1,.52-2,1.46,1.46,0,0,1,2,.51,20.44,20.44,0,0,0,17.5,9.77h0a20.44,20.44,0,0,0,17.5-9.79,1.47,1.47,0,0,1,1.27-.73h0a1.5,1.5,0,0,1,1.28.72,20.4,20.4,0,0,0,17.5,9.77h0A20.42,20.42,0,0,0,159.7,332a1.48,1.48,0,0,1,1.27-.72h0a1.48,1.48,0,0,1,1.27.72,20.44,20.44,0,0,0,17.5,9.77h0a20.43,20.43,0,0,0,17.5-9.79,1.5,1.5,0,0,1,1.28-.73h0a1.49,1.49,0,0,1,1.27.72,20.43,20.43,0,0,0,17.5,9.77h0a20.4,20.4,0,0,0,17.5-9.79,1.46,1.46,0,0,1,1.27-.72h0a1.48,1.48,0,0,1,1.28.72,20.42,20.42,0,0,0,17.5,9.77h0a20.44,20.44,0,0,0,17.5-9.79,1.48,1.48,0,1,1,2.55,1.52,23.4,23.4,0,0,1-20.05,11.24h0a23.52,23.52,0,0,1-18.77-9.31,23.47,23.47,0,0,1-18.77,9.33h0a23.5,23.5,0,0,1-18.77-9.3,23.51,23.51,0,0,1-18.77,9.33h0A23.49,23.49,0,0,1,161,335.39a23.5,23.5,0,0,1-18.78,9.33h0a23.52,23.52,0,0,1-18.78-9.3,23.5,23.5,0,0,1-18.77,9.33Z" transform="translate(-0.58 -0.3)"/><path class="cls-1" d="M162.23,362.34a22.9,22.9,0,0,1-18.18-8.88,22.21,22.21,0,0,1-6.81,5.93,1.49,1.49,0,0,1-1.46-2.59,19.19,19.19,0,0,0,7-6.74,1.46,1.46,0,0,1,1.27-.72h0a1.48,1.48,0,0,1,1.27.72,19.79,19.79,0,0,0,16.91,9.31h0A19.79,19.79,0,0,0,179.15,350a1.49,1.49,0,0,1,1.27-.71h0a1.49,1.49,0,0,1,1.27.71,19.79,19.79,0,0,0,16.91,9.31h0A19.76,19.76,0,0,0,215.52,350a1.48,1.48,0,0,1,1.27-.72h0a1.48,1.48,0,0,1,1.27.72,19.17,19.17,0,0,0,6.74,6.59,1.49,1.49,0,0,1-1.49,2.57,22.37,22.37,0,0,1-6.52-5.75,22.89,22.89,0,0,1-18.18,8.89h0a22.92,22.92,0,0,1-18.18-8.87,22.92,22.92,0,0,1-18.18,8.9Z" transform="translate(-0.58 -0.3)"/><path class="cls-1" d="M256.92,281.7a12.48,12.48,0,0,1-12.63-12.28,12,12,0,0,1,3.71-8.7,12.72,12.72,0,0,1,8.91-3.58h12.25a6.25,6.25,0,0,0,4.39-1.77,5.79,5.79,0,0,0,1.8-4.19,6.08,6.08,0,0,0-6.2-5.94h-.36a12.28,12.28,0,1,1,0-24.56l80.43-.06a6.66,6.66,0,0,0,6.54-5.11,6.21,6.21,0,0,0-1.26-5.25,6.7,6.7,0,0,0-5.28-2.49H349a12.48,12.48,0,0,1-12.63-12.28,12,12,0,0,1,3.71-8.7A12.72,12.72,0,0,1,349,183.2h11.26a1.49,1.49,0,0,1,0,3H349a9.74,9.74,0,0,0-6.84,2.74,9.11,9.11,0,0,0-2.81,6.57,9.5,9.5,0,0,0,9.66,9.3h.19a9.74,9.74,0,0,1,7.6,3.6,9.19,9.19,0,0,1,1.84,7.76,9.66,9.66,0,0,1-9.44,7.45l-80.43,0a9.32,9.32,0,1,0,0,18.62h.36a9.06,9.06,0,0,1,9.17,8.92,8.77,8.77,0,0,1-2.7,6.33,9.21,9.21,0,0,1-6.46,2.6H256.92a9.79,9.79,0,0,0-6.85,2.75,9.08,9.08,0,0,0-2.81,6.56,9.5,9.5,0,0,0,9.66,9.3h0l74.66,0h0a1.49,1.49,0,0,1,0,3l-74.67.05Z" transform="translate(-0.58 -0.3)"/><path class="cls-1" d="M180,323.71a6.91,6.91,0,0,1-6.93-6.93c0-3.29,4.74-10.52,5.69-11.93L180,303l1.23,1.82c.95,1.42,5.71,8.64,5.71,11.93h0a6.94,6.94,0,0,1-6.93,6.94Zm0-15.29c-1.92,3.09-4,6.92-4,8.36a4,4,0,0,0,4,4h0a4,4,0,0,0,4-4h0C184,315.33,181.94,311.51,180,308.42Z" transform="translate(-0.58 -0.3)"/><path class="cls-1" d="M21.45,264.28a7,7,0,0,1-6.94-6.93c0-3.3,4.75-10.52,5.7-11.93l1.23-1.84,1.23,1.83c1,1.42,5.71,8.64,5.72,11.93a6.94,6.94,0,0,1-6.94,6.94Zm0-15.29c-1.92,3.09-4,6.92-4,8.36a4,4,0,0,0,4,4h0a4,4,0,0,0,4-4C25.41,255.9,23.37,252.08,21.44,249Z" transform="translate(-0.58 -0.3)"/><path class="cls-1" d="M259.19,177.92a6.93,6.93,0,0,1-6.93-6.93c0-3.29,4.74-10.52,5.69-11.93l1.23-1.83,1.24,1.83c.95,1.41,5.71,8.63,5.71,11.92a6.94,6.94,0,0,1-6.93,6.94Zm0-15.29c-1.92,3.09-4,6.92-4,8.36a4,4,0,0,0,4,4h0a4,4,0,0,0,4-4C263.16,169.54,261.11,165.72,259.19,162.63Z" transform="translate(-0.58 -0.3)"/><path class="cls-1" d="M140.11,278.53a13.66,13.66,0,0,1,0-27.31h0a1.49,1.49,0,1,1,0,3,10.68,10.68,0,1,0,0,21.36h0a10.67,10.67,0,0,0,10.67-10.68,1.49,1.49,0,0,1,1.48-1.49h0a1.49,1.49,0,0,1,1.49,1.48,13.66,13.66,0,0,1-13.64,13.67Z" transform="translate(-0.58 -0.3)"/><path class="cls-1" d="M136.42,314.42a1.49,1.49,0,0,1,0-3h9.91a1.49,1.49,0,1,1,0,3h-9.91Z" transform="translate(-0.58 -0.3)"/><path class="cls-1" d="M266,33.68a1.49,1.49,0,1,1,0-3H272a1.49,1.49,0,1,1,0,3Z" transform="translate(-0.58 -0.3)"/><path class="cls-1" d="M274.35,51.51a1.49,1.49,0,0,1,0-3h9.91a1.49,1.49,0,1,1,0,3h-9.91Z" transform="translate(-0.58 -0.3)"/><path class="cls-1" d="M277,90.15a1.49,1.49,0,1,1,0-3h7.93a1.49,1.49,0,1,1,0,3Z" transform="translate(-0.58 -0.3)"/><path class="cls-1" d="M272,69.35a1.49,1.49,0,0,1,0-3H278a1.49,1.49,0,1,1,0,3H272Z" transform="translate(-0.58 -0.3)"/><path class="cls-1" d="M163.14,98.39a1.39,1.39,0,0,1-.53-.1,19.61,19.61,0,0,1,6.85-37.91h13c16.81,0,28.16,4.71,31.13,12.92a1.69,1.69,0,0,1-.24,1.51,1.58,1.58,0,0,1-1.4.6,42.27,42.27,0,0,0-5.35-.28h0a50.94,50.94,0,0,0-42.22,22.62A1.48,1.48,0,0,1,163.14,98.39Zm19.31-35h-13a16.64,16.64,0,0,0-6.86,31.71,53.9,53.9,0,0,1,44-22.91h0c1,0,2.09,0,3.15.09C206,66.63,196.11,63.34,182.45,63.34Z" transform="translate(-0.58 -0.3)"/><path class="cls-1" d="M163.39,98.39v-3l26.79,0,5.32-4.84a13.42,13.42,0,0,1,9.05-3.51h8.65a.32.32,0,0,0,.34-.25.32.32,0,0,0-.14-.4l-1.73-1.2a11.39,11.39,0,0,1-4.9-9.33V74.35h3v1.51a8.37,8.37,0,0,0,3.61,6.88l1.73,1.2A3.33,3.33,0,0,1,213.2,90h-8.64a10.48,10.48,0,0,0-7.06,2.73L191.76,98a1.54,1.54,0,0,1-1,.38Z" transform="translate(-0.58 -0.3)"/><circle class="cls-1" cx="202" cy="80.05" r="1.98"/><path class="cls-1" d="M285,78.26a1.49,1.49,0,0,1,0-3h12.65a12.86,12.86,0,0,0,6.6-1.77c1-.85,10.11-8.15,16.39-8.16h0a1.49,1.49,0,0,1,0,3c-4.53,0-12.05,5.44-14.57,7.53l-.16.12a15.79,15.79,0,0,1-8.25,2.27H285Z" transform="translate(-0.58 -0.3)"/><path class="cls-1" d="M121.54,57.8a1.49,1.49,0,0,1-1.08-2.51l28.09-29.68A11.36,11.36,0,0,1,165,25.28l19.29,19.8a9.53,9.53,0,0,0,7,2.78,9.35,9.35,0,0,0,6.78-3.1l1.68-1.9a11.33,11.33,0,0,1,17.17.37l6.81,9.09a1.48,1.48,0,1,1-2.37,1.78l-6.79-9.05a8.37,8.37,0,0,0-12.59-.23l-1.67,1.9a12.49,12.49,0,0,1-18.11.44L162.86,27.35a8.38,8.38,0,0,0-12.11.27L122.62,57.33A1.49,1.49,0,0,1,121.54,57.8Z" transform="translate(-0.58 -0.3)"/><path class="cls-1" d="M323.33,271.12a36.11,36.11,0,0,1-12.74-2.19,1.48,1.48,0,0,1-.35-2.59l8.54-6.21H302.52a1.48,1.48,0,0,1-1-.44,1.49,1.49,0,0,1-.44-1.05c0-7,9.8-12.49,22.31-12.5h0a33.6,33.6,0,0,1,15.37,3.4c4.47,2.36,6.93,5.58,6.93,9.07,0,7-9.79,12.49-22.31,12.5Zm-9-4.1a35.6,35.6,0,0,0,9,1.13h0c10.31,0,19.34-4.46,19.34-9.53,0-2.3-1.95-4.65-5.34-6.44a30.66,30.66,0,0,0-14-3.05h0c-9.29,0-17.54,3.61-19.09,8h19.09a1.49,1.49,0,0,1,.88,2.69Z" transform="translate(-0.58 -0.3)"/><path class="cls-1" d="M189,287.3a1.49,1.49,0,0,1-.05-3c24.92-.94,46.76-23.05,46.75-47.32v-7.9c0-3.72-.15-7.49-.45-11.2l-2.45-30.33L230.9,224V234.5a44,44,0,0,1-12.81,31.23,46.39,46.39,0,0,1-29.61,13.58,1.48,1.48,0,1,1-.21-3A43.47,43.47,0,0,0,216,263.64a41,41,0,0,0,12-29.14V223.94l3-59a1.49,1.49,0,0,1,1.46-1.41h0a1.48,1.48,0,0,1,1.48,1.37l4.26,52.81c.31,3.78.46,7.63.47,11.42V237c0,12.42-5.41,25-14.86,34.56A52.41,52.41,0,0,1,189,287.3Z" transform="translate(-0.58 -0.3)"/><path class="cls-1" d="M182.15,291.09a7.86,7.86,0,0,1-3-.62L169.77,286a4.78,4.78,0,0,1,0-8.75l9.27-4.42a7.65,7.65,0,0,1,10.74,7v3.58a7.68,7.68,0,0,1-7.66,7.66Zm0-15.93a4.75,4.75,0,0,0-1.87.39L171,280a1.8,1.8,0,0,0-1.13,1.67A1.76,1.76,0,0,0,171,283.3l.06,0,9.32,4.44a4.68,4.68,0,0,0,6.48-4.33v-3.58a4.7,4.7,0,0,0-4.67-4.69Z" transform="translate(-0.58 -0.3)"/><path class="cls-1" d="M164.15,283.44a1.49,1.49,0,0,1,0-3h4a1.49,1.49,0,0,1,0,3Z" transform="translate(-0.58 -0.3)"/><path class="cls-1" d="M167,110.82c-8.9,0-19.09,6.57-19.08,18.12v3.71l0,70.54h3l0-50.53c.55-9.17,7.9-13.61,13.74-15.28a18.52,18.52,0,0,1,4.8-.72c8.06-.47,22.73.09,26.22,0,10.84-.33,19.63-8.86,19.62-19.7v-6.15Z" transform="translate(-0.58 -0.3)"/><path class="cls-1" d="M178.5,257.51l-30.47,0L148,167.41a23.46,23.46,0,0,1,23.45-23.48h7a36.92,36.92,0,0,1,36.93,36.89l0,39.77A36.91,36.91,0,0,1,178.5,257.51Zm-1.82-110.57h-4.93a20.83,20.83,0,0,0-20.81,20.84l0,33.43,18.77,0a27.79,27.79,0,0,0,27.78-27.8v-5.64A20.82,20.82,0,0,0,176.68,146.94Z" transform="translate(-0.58 -0.3)"/><path class="cls-1" d="M163.14,98.39H121.05a1.49,1.49,0,0,1,0-3h42.09a1.49,1.49,0,1,1,0,3Z" transform="translate(-0.58 -0.3)"/></svg>